<svg width="200" height="62" viewBox="0 0 200 62" fill="none" xmlns="http://www.w3.org/2000/svg">
<rect x="11" y="11" width="178" height="40" rx="3" fill="#262A32" fill-opacity="0.8"/>
<g filter="url(#filter0_ddd)">
<rect x="11" y="11" width="178" height="40" rx="3" stroke="white"/>
</g>
<g filter="url(#filter1_ddd)">
<path d="M33.4316 35H32.0166V28.9639L31.1211 32.1699H30.0273L29.1455 28.9639V35H27.7305V26.0791H29.4121L30.5742 30.1123L31.7363 26.0791H33.4316V35ZM41.5732 31.8213C41.5732 32.318 41.4935 32.7692 41.334 33.1748C41.179 33.5804 40.9535 33.9313 40.6572 34.2275C40.3656 34.5192 40.0146 34.7471 39.6045 34.9111C39.1943 35.0752 38.7363 35.1572 38.2305 35.1572C37.7337 35.1572 37.2803 35.0752 36.8701 34.9111C36.46 34.7471 36.1068 34.5192 35.8105 34.2275C35.5189 33.9313 35.2933 33.5804 35.1338 33.1748C34.9788 32.7692 34.9014 32.318 34.9014 31.8213C34.9014 31.3382 34.9788 30.8916 35.1338 30.4814C35.2933 30.0667 35.5189 29.7113 35.8105 29.415C36.1068 29.1143 36.46 28.8841 36.8701 28.7246C37.2803 28.5605 37.7337 28.4785 38.2305 28.4785C38.7363 28.4785 39.1943 28.5605 39.6045 28.7246C40.0146 28.8841 40.3656 29.1143 40.6572 29.415C40.9535 29.7113 41.179 30.0667 41.334 30.4814C41.4935 30.8916 41.5732 31.3382 41.5732 31.8213ZM40.165 31.8213C40.165 31.5342 40.1195 31.263 40.0283 31.0078C39.9417 30.748 39.8141 30.527 39.6455 30.3447C39.4769 30.1624 39.2718 30.0189 39.0303 29.9141C38.7933 29.8047 38.5267 29.75 38.2305 29.75C37.9297 29.75 37.6608 29.8047 37.4238 29.9141C37.1868 30.0189 36.9863 30.1624 36.8223 30.3447C36.6582 30.527 36.5306 30.748 36.4395 31.0078C36.3529 31.263 36.3096 31.5342 36.3096 31.8213C36.3096 32.1221 36.3529 32.3955 36.4395 32.6416C36.5306 32.8877 36.6582 33.1042 36.8223 33.291C36.9863 33.4779 37.1868 33.6237 37.4238 33.7285C37.6608 33.8288 37.9297 33.8789 38.2305 33.8789C38.5267 33.8789 38.7933 33.8288 39.0303 33.7285C39.2718 33.6237 39.4769 33.4779 39.6455 33.291C39.8141 33.1042 39.9417 32.8877 40.0283 32.6416C40.1195 32.3955 40.165 32.1221 40.165 31.8213ZM43.0156 28.6289H44.4307V33.0107L46.9395 28.6289H48.7168V35H47.3018V30.3652L44.6562 35H43.0156V28.6289ZM64.3232 35H62.4912L60.3584 32.4229L59.7158 33.0791V35H58.3008V28.6289H59.7158V31.3291L62.2656 28.6289H64.207L61.2676 31.5547L64.3232 35ZM71.9248 28.6289L69.1768 36.2441C68.9717 36.7956 68.6732 37.1761 68.2812 37.3857C67.8893 37.5954 67.4222 37.7002 66.8799 37.7002C66.693 37.7002 66.4925 37.682 66.2783 37.6455C66.0641 37.609 65.8408 37.5475 65.6084 37.4609L65.9023 36.1621C66.0983 36.235 66.2783 36.2852 66.4424 36.3125C66.6064 36.3444 66.7523 36.3604 66.8799 36.3604C67.3037 36.3604 67.5931 36.1689 67.748 35.7861L68.001 35.1709L65.5674 28.6289H67.0371L68.7871 33.4482L70.4072 28.6289H71.9248ZM73.5859 28.6289H75.001V29.2031C75.2699 28.9616 75.541 28.7816 75.8145 28.6631C76.0924 28.54 76.4092 28.4785 76.7646 28.4785C77.1748 28.4785 77.5553 28.5628 77.9062 28.7314C78.2572 28.8955 78.5579 29.1257 78.8086 29.4219C79.0592 29.7135 79.2575 30.0667 79.4033 30.4814C79.5492 30.8916 79.6221 31.3382 79.6221 31.8213C79.6221 32.3089 79.5492 32.7578 79.4033 33.168C79.2575 33.5781 79.0592 33.9313 78.8086 34.2275C78.5579 34.5192 78.2572 34.7471 77.9062 34.9111C77.5553 35.0752 77.1748 35.1572 76.7646 35.1572C76.4092 35.1572 76.0924 35.0934 75.8145 34.9658C75.541 34.8382 75.2699 34.6536 75.001 34.4121V37.5498H73.5859V28.6289ZM75.001 33.291C75.1696 33.4779 75.3838 33.6237 75.6436 33.7285C75.9079 33.8288 76.1608 33.8789 76.4023 33.8789C76.9355 33.8789 77.3685 33.6898 77.7012 33.3115C78.0384 32.9333 78.207 32.4365 78.207 31.8213C78.207 31.2061 78.0384 30.707 77.7012 30.3242C77.3685 29.9414 76.9355 29.75 76.4023 29.75C76.1608 29.75 75.9079 29.8001 75.6436 29.9004C75.3838 29.9961 75.1696 30.1374 75.001 30.3242V33.291ZM87.0254 34.0908C86.6152 34.501 86.1823 34.7812 85.7266 34.9316C85.2754 35.082 84.7855 35.1572 84.2568 35.1572C83.7236 35.1572 83.2383 35.0775 82.8008 34.918C82.3678 34.7585 81.9987 34.5352 81.6934 34.248C81.3926 33.9564 81.1602 33.6055 80.9961 33.1953C80.8366 32.7852 80.7568 32.3271 80.7568 31.8213C80.7568 31.3382 80.8366 30.8916 80.9961 30.4814C81.1602 30.0667 81.3789 29.7135 81.6523 29.4219C81.9303 29.1257 82.2562 28.8955 82.6299 28.7314C83.0036 28.5628 83.4001 28.4785 83.8193 28.4785C84.2568 28.4785 84.6374 28.5697 84.9609 28.752C85.2845 28.9342 85.5192 29.2008 85.665 29.5518V28.6289H86.9297V31.5957H85.665C85.665 31.0352 85.5101 30.5885 85.2002 30.2559C84.8949 29.9186 84.4961 29.75 84.0039 29.75C83.8079 29.75 83.6006 29.791 83.3818 29.873C83.1676 29.9505 82.9694 30.0736 82.7871 30.2422C82.6094 30.4108 82.4613 30.625 82.3428 30.8848C82.2243 31.1445 82.165 31.4567 82.165 31.8213C82.165 32.1768 82.222 32.4844 82.3359 32.7441C82.4499 32.9993 82.598 33.2113 82.7803 33.3799C82.9671 33.5439 83.1859 33.6693 83.4365 33.7559C83.6917 33.8379 83.9538 33.8789 84.2227 33.8789C84.6829 33.8789 85.0817 33.8083 85.4189 33.667C85.7607 33.5212 86.0547 33.3298 86.3008 33.0928L87.0254 34.0908ZM92.8633 33.0381C92.8633 33.6852 92.6582 34.1751 92.248 34.5078C91.8379 34.8359 91.2637 35 90.5254 35H88.3994V28.6289H89.8076V31.0967H90.5391C91.2682 31.0967 91.8379 31.2585 92.248 31.582C92.6582 31.901 92.8633 32.3864 92.8633 33.0381ZM91.4482 33.0518C91.4482 32.8193 91.3662 32.6484 91.2021 32.5391C91.0381 32.4251 90.8171 32.3682 90.5391 32.3682H89.8076V33.7285H90.5391C90.8171 33.7285 91.0381 33.6715 91.2021 33.5576C91.3662 33.4437 91.4482 33.2751 91.4482 33.0518ZM93.6289 28.6289H95.0439V35H93.6289V28.6289ZM104.156 28.6289H105.571V33.0107L108.08 28.6289H109.857V35H108.442V30.3652L105.797 35H104.156V28.6289ZM125.238 34.0908C124.828 34.501 124.395 34.7812 123.939 34.9316C123.488 35.082 122.998 35.1572 122.47 35.1572C121.937 35.1572 121.451 35.0775 121.014 34.918C120.581 34.7585 120.212 34.5352 119.906 34.248C119.605 33.9564 119.373 33.6055 119.209 33.1953C119.049 32.7852 118.97 32.3271 118.97 31.8213C118.97 31.3382 119.049 30.8916 119.209 30.4814C119.373 30.0667 119.592 29.7135 119.865 29.4219C120.143 29.1257 120.469 28.8955 120.843 28.7314C121.216 28.5628 121.613 28.4785 122.032 28.4785C122.47 28.4785 122.85 28.5697 123.174 28.752C123.497 28.9342 123.732 29.2008 123.878 29.5518V28.6289H125.143V31.5957H123.878C123.878 31.0352 123.723 30.5885 123.413 30.2559C123.108 29.9186 122.709 29.75 122.217 29.75C122.021 29.75 121.813 29.791 121.595 29.873C121.381 29.9505 121.182 30.0736 121 30.2422C120.822 30.4108 120.674 30.625 120.556 30.8848C120.437 31.1445 120.378 31.4567 120.378 31.8213C120.378 32.1768 120.435 32.4844 120.549 32.7441C120.663 32.9993 120.811 33.2113 120.993 33.3799C121.18 33.5439 121.399 33.6693 121.649 33.7559C121.905 33.8379 122.167 33.8789 122.436 33.8789C122.896 33.8789 123.295 33.8083 123.632 33.667C123.974 33.5212 124.268 33.3298 124.514 33.0928L125.238 34.0908ZM133.284 31.8213C133.284 32.318 133.204 32.7692 133.045 33.1748C132.89 33.5804 132.664 33.9313 132.368 34.2275C132.076 34.5192 131.726 34.7471 131.315 34.9111C130.905 35.0752 130.447 35.1572 129.941 35.1572C129.445 35.1572 128.991 35.0752 128.581 34.9111C128.171 34.7471 127.818 34.5192 127.521 34.2275C127.23 33.9313 127.004 33.5804 126.845 33.1748C126.69 32.7692 126.612 32.318 126.612 31.8213C126.612 31.3382 126.69 30.8916 126.845 30.4814C127.004 30.0667 127.23 29.7113 127.521 29.415C127.818 29.1143 128.171 28.8841 128.581 28.7246C128.991 28.5605 129.445 28.4785 129.941 28.4785C130.447 28.4785 130.905 28.5605 131.315 28.7246C131.726 28.8841 132.076 29.1143 132.368 29.415C132.664 29.7113 132.89 30.0667 133.045 30.4814C133.204 30.8916 133.284 31.3382 133.284 31.8213ZM131.876 31.8213C131.876 31.5342 131.83 31.263 131.739 31.0078C131.653 30.748 131.525 30.527 131.356 30.3447C131.188 30.1624 130.983 30.0189 130.741 29.9141C130.504 29.8047 130.238 29.75 129.941 29.75C129.641 29.75 129.372 29.8047 129.135 29.9141C128.898 30.0189 128.697 30.1624 128.533 30.3447C128.369 30.527 128.242 30.748 128.15 31.0078C128.064 31.263 128.021 31.5342 128.021 31.8213C128.021 32.1221 128.064 32.3955 128.15 32.6416C128.242 32.8877 128.369 33.1042 128.533 33.291C128.697 33.4779 128.898 33.6237 129.135 33.7285C129.372 33.8288 129.641 33.8789 129.941 33.8789C130.238 33.8789 130.504 33.8288 130.741 33.7285C130.983 33.6237 131.188 33.4779 131.356 33.291C131.525 33.1042 131.653 32.8877 131.739 32.6416C131.83 32.3955 131.876 32.1221 131.876 31.8213ZM135.889 31.9648C135.889 32.5436 136.041 33.0085 136.347 33.3594C136.657 33.7057 137.078 33.8789 137.611 33.8789C138.117 33.8789 138.532 33.7057 138.855 33.3594C139.184 33.0085 139.348 32.5436 139.348 31.9648C139.348 31.377 139.193 30.9098 138.883 30.5635C138.577 30.2171 138.154 30.0439 137.611 30.0439C137.033 30.0439 136.6 30.2171 136.312 30.5635C136.03 30.9098 135.889 31.377 135.889 31.9648ZM134.392 30.5498C134.392 29.8662 134.462 29.2419 134.604 28.6768C134.749 28.1117 134.952 27.6263 135.212 27.2207C135.476 26.8151 135.788 26.4984 136.148 26.2705C136.508 26.0426 136.907 25.9287 137.345 25.9287C137.559 25.9287 137.737 25.9492 137.878 25.9902C138.019 26.0312 138.145 26.0814 138.254 26.1406C138.368 26.1953 138.473 26.2432 138.568 26.2842C138.669 26.3252 138.789 26.3457 138.931 26.3457C139.118 26.3457 139.275 26.3138 139.402 26.25C139.535 26.1862 139.694 26.0791 139.881 25.9287L140.523 26.8652C140.355 27.0703 140.127 27.248 139.84 27.3984C139.557 27.5488 139.254 27.624 138.931 27.624C138.712 27.624 138.536 27.6035 138.404 27.5625C138.277 27.5169 138.158 27.4668 138.049 27.4121C137.944 27.3574 137.839 27.3096 137.734 27.2686C137.634 27.223 137.504 27.2002 137.345 27.2002C137.131 27.2002 136.932 27.2549 136.75 27.3643C136.568 27.4691 136.406 27.6377 136.265 27.8701C136.128 28.098 136.019 28.3919 135.937 28.752C135.859 29.1074 135.82 29.5426 135.82 30.0576C135.998 29.6383 136.246 29.3193 136.565 29.1006C136.889 28.8818 137.242 28.7725 137.625 28.7725C138.072 28.7725 138.486 28.8408 138.869 28.9775C139.252 29.1097 139.582 29.3102 139.86 29.5791C140.143 29.8434 140.364 30.1738 140.523 30.5703C140.683 30.9668 140.763 31.4316 140.763 31.9648C140.763 32.4115 140.683 32.8307 140.523 33.2227C140.364 33.6146 140.143 33.9541 139.86 34.2412C139.582 34.5238 139.252 34.7471 138.869 34.9111C138.486 35.0752 138.072 35.1572 137.625 35.1572C136.554 35.1572 135.747 34.7835 135.205 34.0361C134.663 33.2887 134.392 32.1266 134.392 30.5498ZM146.361 33.0381C146.361 33.6852 146.156 34.1751 145.746 34.5078C145.336 34.8359 144.762 35 144.023 35H141.897V28.6289H143.306V31.0967H144.037C144.766 31.0967 145.336 31.2585 145.746 31.582C146.156 31.901 146.361 32.3864 146.361 33.0381ZM144.946 33.0518C144.946 32.8193 144.864 32.6484 144.7 32.5391C144.536 32.4251 144.315 32.3682 144.037 32.3682H143.306V33.7285H144.037C144.315 33.7285 144.536 33.6715 144.7 33.5576C144.864 33.4437 144.946 33.2751 144.946 33.0518ZM147.127 28.6289H148.542V35H147.127V28.6289ZM156.034 31.876H154.77V29.9072H153.566V33.7285H154.981V35H150.743V33.7285H152.151V29.9072H150.935V31.876H149.677V28.6289H156.034V31.876ZM157.654 28.6289H159.069V33.0107L161.578 28.6289H163.355V35H161.94V30.3652L159.295 35H157.654V28.6289ZM167.245 32.5391C166.525 32.5299 165.965 32.3636 165.563 32.04C165.162 31.7165 164.962 31.2334 164.962 30.5908C164.962 29.9482 165.167 29.4606 165.577 29.1279C165.987 28.7952 166.562 28.6289 167.3 28.6289H170.998V35H169.583V32.5391H169.009L166.767 35H164.88L167.245 32.5391ZM166.377 30.5771C166.377 30.8096 166.459 30.9827 166.623 31.0967C166.787 31.2061 167.008 31.2607 167.286 31.2607H169.583V29.9072H167.286C167.008 29.9072 166.787 29.9642 166.623 30.0781C166.459 30.1875 166.377 30.3538 166.377 30.5771Z" fill="white"/>
</g>
<defs>
<filter id="filter0_ddd" x="0.5" y="0.5" width="199" height="61" filterUnits="userSpaceOnUse" color-interpolation-filters="sRGB">
<feFlood flood-opacity="0" result="BackgroundImageFix"/>
<feColorMatrix in="SourceAlpha" type="matrix" values="0 0 0 0 0 0 0 0 0 0 0 0 0 0 0 0 0 0 127 0"/>
<feOffset/>
<feGaussianBlur stdDeviation="5"/>
<feColorMatrix type="matrix" values="0 0 0 0 0.156863 0 0 0 0 0.439216 0 0 0 0 0.984314 0 0 0 1 0"/>
<feBlend mode="normal" in2="BackgroundImageFix" result="effect1_dropShadow"/>
<feColorMatrix in="SourceAlpha" type="matrix" values="0 0 0 0 0 0 0 0 0 0 0 0 0 0 0 0 0 0 127 0"/>
<feOffset/>
<feGaussianBlur stdDeviation="1"/>
<feColorMatrix type="matrix" values="0 0 0 0 0.156863 0 0 0 0 0.439216 0 0 0 0 0.984314 0 0 0 1 0"/>
<feBlend mode="normal" in2="effect1_dropShadow" result="effect2_dropShadow"/>
<feColorMatrix in="SourceAlpha" type="matrix" values="0 0 0 0 0 0 0 0 0 0 0 0 0 0 0 0 0 0 127 0"/>
<feOffset/>
<feGaussianBlur stdDeviation="0.5"/>
<feColorMatrix type="matrix" values="0 0 0 0 0.156863 0 0 0 0 0.439216 0 0 0 0 0.984314 0 0 0 1 0"/>
<feBlend mode="normal" in2="effect2_dropShadow" result="effect3_dropShadow"/>
<feBlend mode="normal" in="SourceGraphic" in2="effect3_dropShadow" result="shape"/>
</filter>
<filter id="filter1_ddd" x="17.7305" y="15.9287" width="163.268" height="31.7715" filterUnits="userSpaceOnUse" color-interpolation-filters="sRGB">
<feFlood flood-opacity="0" result="BackgroundImageFix"/>
<feColorMatrix in="SourceAlpha" type="matrix" values="0 0 0 0 0 0 0 0 0 0 0 0 0 0 0 0 0 0 127 0"/>
<feOffset/>
<feGaussianBlur stdDeviation="5"/>
<feColorMatrix type="matrix" values="0 0 0 0 0.156863 0 0 0 0 0.439216 0 0 0 0 0.984314 0 0 0 1 0"/>
<feBlend mode="normal" in2="BackgroundImageFix" result="effect1_dropShadow"/>
<feColorMatrix in="SourceAlpha" type="matrix" values="0 0 0 0 0 0 0 0 0 0 0 0 0 0 0 0 0 0 127 0"/>
<feOffset/>
<feGaussianBlur stdDeviation="1"/>
<feColorMatrix type="matrix" values="0 0 0 0 0.156863 0 0 0 0 0.439216 0 0 0 0 0.984314 0 0 0 1 0"/>
<feBlend mode="normal" in2="effect1_dropShadow" result="effect2_dropShadow"/>
<feColorMatrix in="SourceAlpha" type="matrix" values="0 0 0 0 0 0 0 0 0 0 0 0 0 0 0 0 0 0 127 0"/>
<feOffset/>
<feGaussianBlur stdDeviation="0.5"/>
<feColorMatrix type="matrix" values="0 0 0 0 0.156863 0 0 0 0 0.439216 0 0 0 0 0.984314 0 0 0 1 0"/>
<feBlend mode="normal" in2="effect2_dropShadow" result="effect3_dropShadow"/>
<feBlend mode="normal" in="SourceGraphic" in2="effect3_dropShadow" result="shape"/>
</filter>
</defs>
</svg>
