<svg width="146" height="62" viewBox="0 0 146 62" fill="none" xmlns="http://www.w3.org/2000/svg">
<rect x="11" y="11" width="124" height="40" rx="3" fill="#262A32" fill-opacity="0.8"/>
<g filter="url(#filter0_ddd)">
<rect x="11" y="11" width="124" height="40" rx="3" stroke="white"/>
</g>
<g filter="url(#filter1_ddd)">
<path d="M26.9189 30.5361C26.9189 29.9391 26.9827 29.3626 27.1104 28.8066C27.238 28.2507 27.4362 27.7607 27.7051 27.3369C27.974 26.9131 28.3249 26.5736 28.7578 26.3184C29.1953 26.0586 29.7217 25.9287 30.3369 25.9287C30.9521 25.9287 31.4762 26.0586 31.9092 26.3184C32.3467 26.5736 32.7021 26.9131 32.9756 27.3369C33.249 27.7607 33.4473 28.2507 33.5703 28.8066C33.6934 29.3626 33.7549 29.9391 33.7549 30.5361C33.7549 31.1331 33.6934 31.7096 33.5703 32.2656C33.4473 32.8171 33.2513 33.3092 32.9824 33.7422C32.7135 34.1706 32.3604 34.5146 31.9229 34.7744C31.4899 35.0296 30.9613 35.1572 30.3369 35.1572C29.7126 35.1572 29.1816 35.0296 28.7441 34.7744C28.3112 34.5146 27.958 34.1706 27.6846 33.7422C27.4157 33.3092 27.222 32.8171 27.1035 32.2656C26.9805 31.7096 26.9189 31.1331 26.9189 30.5361ZM28.334 30.5361C28.334 30.9372 28.3636 31.3382 28.4229 31.7393C28.4867 32.1403 28.5915 32.5003 28.7373 32.8193C28.8877 33.1338 29.0905 33.389 29.3457 33.585C29.6055 33.7809 29.9359 33.8789 30.3369 33.8789C30.738 33.8789 31.0661 33.7809 31.3213 33.585C31.5811 33.389 31.7839 33.1338 31.9297 32.8193C32.0801 32.5003 32.1849 32.1403 32.2441 31.7393C32.3079 31.3382 32.3398 30.9372 32.3398 30.5361C32.3398 30.1351 32.3079 29.7363 32.2441 29.3398C32.1849 28.9434 32.0801 28.5856 31.9297 28.2666C31.7839 27.9476 31.5788 27.6901 31.3145 27.4941C31.0547 27.2982 30.7288 27.2002 30.3369 27.2002C29.6852 27.2002 29.1885 27.4941 28.8467 28.082C28.5049 28.6699 28.334 29.488 28.334 30.5361ZM36.2842 31.9648C36.2842 32.5436 36.4368 33.0085 36.7422 33.3594C37.0521 33.7057 37.4736 33.8789 38.0068 33.8789C38.5127 33.8789 38.9274 33.7057 39.251 33.3594C39.5791 33.0085 39.7432 32.5436 39.7432 31.9648C39.7432 31.377 39.5882 30.9098 39.2783 30.5635C38.973 30.2171 38.5492 30.0439 38.0068 30.0439C37.4281 30.0439 36.9951 30.2171 36.708 30.5635C36.4255 30.9098 36.2842 31.377 36.2842 31.9648ZM34.7871 30.5498C34.7871 29.8662 34.8577 29.2419 34.999 28.6768C35.1449 28.1117 35.3477 27.6263 35.6074 27.2207C35.8717 26.8151 36.1839 26.4984 36.5439 26.2705C36.904 26.0426 37.3027 25.9287 37.7402 25.9287C37.9544 25.9287 38.1322 25.9492 38.2734 25.9902C38.4147 26.0312 38.54 26.0814 38.6494 26.1406C38.7633 26.1953 38.8682 26.2432 38.9639 26.2842C39.0641 26.3252 39.1849 26.3457 39.3262 26.3457C39.513 26.3457 39.6702 26.3138 39.7979 26.25C39.93 26.1862 40.0895 26.0791 40.2764 25.9287L40.9189 26.8652C40.7503 27.0703 40.5225 27.248 40.2354 27.3984C39.9528 27.5488 39.6497 27.624 39.3262 27.624C39.1074 27.624 38.932 27.6035 38.7998 27.5625C38.6722 27.5169 38.5537 27.4668 38.4443 27.4121C38.3395 27.3574 38.2347 27.3096 38.1299 27.2686C38.0296 27.223 37.8997 27.2002 37.7402 27.2002C37.526 27.2002 37.3278 27.2549 37.1455 27.3643C36.9632 27.4691 36.8014 27.6377 36.6602 27.8701C36.5234 28.098 36.4141 28.3919 36.332 28.752C36.2546 29.1074 36.2158 29.5426 36.2158 30.0576C36.3936 29.6383 36.6419 29.3193 36.9609 29.1006C37.2845 28.8818 37.6377 28.7725 38.0205 28.7725C38.4671 28.7725 38.8818 28.8408 39.2646 28.9775C39.6475 29.1097 39.9779 29.3102 40.2559 29.5791C40.5384 29.8434 40.7594 30.1738 40.9189 30.5703C41.0785 30.9668 41.1582 31.4316 41.1582 31.9648C41.1582 32.4115 41.0785 32.8307 40.9189 33.2227C40.7594 33.6146 40.5384 33.9541 40.2559 34.2412C39.9779 34.5238 39.6475 34.7471 39.2646 34.9111C38.8818 35.0752 38.4671 35.1572 38.0205 35.1572C36.9495 35.1572 36.1429 34.7835 35.6006 34.0361C35.0583 33.2887 34.7871 32.1266 34.7871 30.5498ZM48.9648 31.8213C48.9648 32.318 48.8851 32.7692 48.7256 33.1748C48.5706 33.5804 48.3451 33.9313 48.0488 34.2275C47.7572 34.5192 47.4062 34.7471 46.9961 34.9111C46.5859 35.0752 46.1279 35.1572 45.6221 35.1572C45.1253 35.1572 44.6719 35.0752 44.2617 34.9111C43.8516 34.7471 43.4984 34.5192 43.2021 34.2275C42.9105 33.9313 42.6849 33.5804 42.5254 33.1748C42.3704 32.7692 42.293 32.318 42.293 31.8213C42.293 31.3382 42.3704 30.8916 42.5254 30.4814C42.6849 30.0667 42.9105 29.7113 43.2021 29.415C43.4984 29.1143 43.8516 28.8841 44.2617 28.7246C44.6719 28.5605 45.1253 28.4785 45.6221 28.4785C46.1279 28.4785 46.5859 28.5605 46.9961 28.7246C47.4062 28.8841 47.7572 29.1143 48.0488 29.415C48.3451 29.7113 48.5706 30.0667 48.7256 30.4814C48.8851 30.8916 48.9648 31.3382 48.9648 31.8213ZM47.5566 31.8213C47.5566 31.5342 47.5111 31.263 47.4199 31.0078C47.3333 30.748 47.2057 30.527 47.0371 30.3447C46.8685 30.1624 46.6634 30.0189 46.4219 29.9141C46.1849 29.8047 45.9183 29.75 45.6221 29.75C45.3213 29.75 45.0524 29.8047 44.8154 29.9141C44.5785 30.0189 44.3779 30.1624 44.2139 30.3447C44.0498 30.527 43.9222 30.748 43.8311 31.0078C43.7445 31.263 43.7012 31.5342 43.7012 31.8213C43.7012 32.1221 43.7445 32.3955 43.8311 32.6416C43.9222 32.8877 44.0498 33.1042 44.2139 33.291C44.3779 33.4779 44.5785 33.6237 44.8154 33.7285C45.0524 33.8288 45.3213 33.8789 45.6221 33.8789C45.9183 33.8789 46.1849 33.8288 46.4219 33.7285C46.6634 33.6237 46.8685 33.4779 47.0371 33.291C47.2057 33.1042 47.3333 32.8877 47.4199 32.6416C47.5111 32.3955 47.5566 32.1221 47.5566 31.8213ZM50.4072 28.6289H51.8223V29.2031C52.0911 28.9616 52.3623 28.7816 52.6357 28.6631C52.9137 28.54 53.2305 28.4785 53.5859 28.4785C53.9961 28.4785 54.3766 28.5628 54.7275 28.7314C55.0785 28.8955 55.3792 29.1257 55.6299 29.4219C55.8805 29.7135 56.0788 30.0667 56.2246 30.4814C56.3704 30.8916 56.4434 31.3382 56.4434 31.8213C56.4434 32.3089 56.3704 32.7578 56.2246 33.168C56.0788 33.5781 55.8805 33.9313 55.6299 34.2275C55.3792 34.5192 55.0785 34.7471 54.7275 34.9111C54.3766 35.0752 53.9961 35.1572 53.5859 35.1572C53.2305 35.1572 52.9137 35.0934 52.6357 34.9658C52.3623 34.8382 52.0911 34.6536 51.8223 34.4121V37.5498H50.4072V28.6289ZM51.8223 33.291C51.9909 33.4779 52.2051 33.6237 52.4648 33.7285C52.7292 33.8288 52.9821 33.8789 53.2236 33.8789C53.7568 33.8789 54.1898 33.6898 54.5225 33.3115C54.8597 32.9333 55.0283 32.4365 55.0283 31.8213C55.0283 31.2061 54.8597 30.707 54.5225 30.3242C54.1898 29.9414 53.7568 29.75 53.2236 29.75C52.9821 29.75 52.7292 29.8001 52.4648 29.9004C52.2051 29.9961 51.9909 30.1374 51.8223 30.3242V33.291ZM64.0312 28.6289L61.2832 36.2441C61.0781 36.7956 60.7796 37.1761 60.3877 37.3857C59.9958 37.5954 59.5286 37.7002 58.9863 37.7002C58.7995 37.7002 58.599 37.682 58.3848 37.6455C58.1706 37.609 57.9473 37.5475 57.7148 37.4609L58.0088 36.1621C58.2048 36.235 58.3848 36.2852 58.5488 36.3125C58.7129 36.3444 58.8587 36.3604 58.9863 36.3604C59.4102 36.3604 59.6995 36.1689 59.8545 35.7861L60.1074 35.1709L57.6738 28.6289H59.1436L60.8936 33.4482L62.5137 28.6289H64.0312ZM65.3574 33.7285C65.6172 33.5872 65.8291 33.4255 65.9932 33.2432C66.1572 33.0609 66.2848 32.8307 66.376 32.5527C66.4717 32.2702 66.5378 31.9284 66.5742 31.5273C66.6107 31.1263 66.6289 30.6455 66.6289 30.085V28.6289H70.6895V33.7285H71.7285V37.1807H70.4502V35H66.6289V37.1807H65.3574V33.7285ZM68.0439 30.3652C68.0439 30.625 68.0348 30.9189 68.0166 31.2471C67.9984 31.5752 67.9528 31.8988 67.8799 32.2178C67.8115 32.5322 67.7044 32.8262 67.5586 33.0996C67.4173 33.3685 67.2145 33.5781 66.9502 33.7285H69.2744V29.8184H68.0439V30.3652ZM79.5352 31.8213C79.5352 32.318 79.4554 32.7692 79.2959 33.1748C79.141 33.5804 78.9154 33.9313 78.6191 34.2275C78.3275 34.5192 77.9766 34.7471 77.5664 34.9111C77.1562 35.0752 76.6982 35.1572 76.1924 35.1572C75.6956 35.1572 75.2422 35.0752 74.832 34.9111C74.4219 34.7471 74.0687 34.5192 73.7725 34.2275C73.4808 33.9313 73.2552 33.5804 73.0957 33.1748C72.9408 32.7692 72.8633 32.318 72.8633 31.8213C72.8633 31.3382 72.9408 30.8916 73.0957 30.4814C73.2552 30.0667 73.4808 29.7113 73.7725 29.415C74.0687 29.1143 74.4219 28.8841 74.832 28.7246C75.2422 28.5605 75.6956 28.4785 76.1924 28.4785C76.6982 28.4785 77.1562 28.5605 77.5664 28.7246C77.9766 28.8841 78.3275 29.1143 78.6191 29.415C78.9154 29.7113 79.141 30.0667 79.2959 30.4814C79.4554 30.8916 79.5352 31.3382 79.5352 31.8213ZM78.127 31.8213C78.127 31.5342 78.0814 31.263 77.9902 31.0078C77.9036 30.748 77.776 30.527 77.6074 30.3447C77.4388 30.1624 77.2337 30.0189 76.9922 29.9141C76.7552 29.8047 76.4886 29.75 76.1924 29.75C75.8916 29.75 75.6227 29.8047 75.3857 29.9141C75.1488 30.0189 74.9482 30.1624 74.7842 30.3447C74.6201 30.527 74.4925 30.748 74.4014 31.0078C74.3148 31.263 74.2715 31.5342 74.2715 31.8213C74.2715 32.1221 74.3148 32.3955 74.4014 32.6416C74.4925 32.8877 74.6201 33.1042 74.7842 33.291C74.9482 33.4779 75.1488 33.6237 75.3857 33.7285C75.6227 33.8288 75.8916 33.8789 76.1924 33.8789C76.4886 33.8789 76.7552 33.8288 76.9922 33.7285C77.2337 33.6237 77.4388 33.4779 77.6074 33.291C77.776 33.1042 77.9036 32.8877 77.9902 32.6416C78.0814 32.3955 78.127 32.1221 78.127 31.8213ZM87 33.25C87 33.8288 86.7858 34.2663 86.3574 34.5625C85.9336 34.8542 85.3252 35 84.5322 35H80.9775V28.6289H84.2793C84.571 28.6289 84.8604 28.6517 85.1475 28.6973C85.4391 28.7383 85.6989 28.8203 85.9268 28.9434C86.1546 29.0618 86.3392 29.2305 86.4805 29.4492C86.6217 29.668 86.6924 29.9505 86.6924 30.2969C86.6924 30.6159 86.5921 30.903 86.3916 31.1582C86.1911 31.4134 85.8812 31.6025 85.4619 31.7256C85.9814 31.7985 86.3665 31.9671 86.6172 32.2314C86.8724 32.4912 87 32.8307 87 33.25ZM85.291 30.4609C85.291 30.3242 85.2614 30.2148 85.2021 30.1328C85.1475 30.0462 85.0723 29.9801 84.9766 29.9346C84.8854 29.8844 84.7783 29.8525 84.6553 29.8389C84.5368 29.8252 84.4183 29.8184 84.2998 29.8184H82.3926V31.0967H84.2998C84.4183 31.0967 84.5368 31.0898 84.6553 31.0762C84.7783 31.0579 84.8854 31.026 84.9766 30.9805C85.0723 30.9349 85.1475 30.8711 85.2021 30.7891C85.2614 30.7025 85.291 30.5931 85.291 30.4609ZM85.5986 33.0381C85.5986 32.8148 85.5052 32.6484 85.3184 32.5391C85.1315 32.4251 84.8695 32.3682 84.5322 32.3682H82.3926V33.7285H84.5322C84.8695 33.7285 85.1315 33.6715 85.3184 33.5576C85.5052 33.4437 85.5986 33.2705 85.5986 33.0381ZM88.2578 33.168C88.2578 32.7943 88.3581 32.4684 88.5586 32.1904C88.7591 31.9079 89.0212 31.6732 89.3447 31.4863C89.6729 31.2995 90.0465 31.1605 90.4658 31.0693C90.8896 30.9736 91.3203 30.9258 91.7578 30.9258C91.9993 30.9258 92.2067 30.9303 92.3799 30.9395C92.5531 30.9486 92.7285 30.9622 92.9062 30.9805V30.7275C92.9062 30.3949 92.7764 30.1465 92.5166 29.9824C92.2614 29.8184 91.9242 29.7363 91.5049 29.7363C91.1221 29.7363 90.7324 29.791 90.3359 29.9004C89.9395 30.0052 89.5635 30.1602 89.208 30.3652L88.6338 29.2578C89.0531 29.0163 89.502 28.8271 89.9805 28.6904C90.4635 28.5492 90.9717 28.4785 91.5049 28.4785C91.8512 28.4785 92.1908 28.5173 92.5234 28.5947C92.8607 28.6722 93.1615 28.7998 93.4258 28.9775C93.6947 29.1553 93.9089 29.3877 94.0684 29.6748C94.2279 29.9574 94.3076 30.3083 94.3076 30.7275V35H92.9062V34.0635C92.6829 34.4098 92.3525 34.6787 91.915 34.8701C91.4821 35.0615 91.015 35.1572 90.5137 35.1572C90.2038 35.1572 89.9098 35.1139 89.6318 35.0273C89.3584 34.9453 89.1214 34.82 88.9209 34.6514C88.7204 34.4827 88.5586 34.2754 88.4355 34.0293C88.3171 33.7786 88.2578 33.4915 88.2578 33.168ZM90.876 33.8926C91.154 33.8926 91.4137 33.8584 91.6553 33.79C91.9014 33.7171 92.1178 33.6191 92.3047 33.4961C92.4915 33.3685 92.6374 33.2158 92.7422 33.0381C92.8516 32.8604 92.9062 32.6644 92.9062 32.4502V32.2109C92.6829 32.1745 92.4733 32.154 92.2773 32.1494C92.0814 32.1449 91.9082 32.1426 91.7578 32.1426C91.0651 32.1426 90.541 32.2337 90.1855 32.416C89.8346 32.5983 89.6592 32.8239 89.6592 33.0928C89.6592 33.626 90.0648 33.8926 90.876 33.8926ZM101.964 35H100.549V32.3682H97.6777V35H96.2627V28.6289H97.6777V31.0967H100.549V28.6289H101.964V35ZM103.905 28.6289H105.32V33.0107L107.829 28.6289H109.606V35H108.191V30.3652L105.546 35H103.905V28.6289ZM112.512 32.3545C112.58 32.792 112.787 33.1566 113.134 33.4482C113.485 33.7354 113.954 33.8789 114.542 33.8789C115.002 33.8789 115.401 33.8083 115.738 33.667C116.08 33.5212 116.374 33.3298 116.62 33.0928L117.345 34.0908C116.935 34.501 116.499 34.7812 116.039 34.9316C115.583 35.082 115.084 35.1572 114.542 35.1572C114.05 35.1572 113.592 35.0752 113.168 34.9111C112.744 34.7471 112.377 34.5192 112.067 34.2275C111.757 33.9313 111.514 33.5804 111.336 33.1748C111.163 32.7692 111.076 32.318 111.076 31.8213C111.076 31.3382 111.156 30.8939 111.315 30.4883C111.479 30.0781 111.707 29.7249 111.999 29.4287C112.295 29.1279 112.648 28.8955 113.059 28.7314C113.469 28.5628 113.922 28.4785 114.419 28.4785C114.934 28.4785 115.401 28.5674 115.82 28.7451C116.24 28.9183 116.597 29.1712 116.894 29.5039C117.194 29.8366 117.429 30.2445 117.598 30.7275C117.766 31.2061 117.851 31.7484 117.851 32.3545H112.512ZM116.251 31.1104C116.178 30.7002 115.966 30.3721 115.615 30.126C115.264 29.8753 114.866 29.75 114.419 29.75C113.972 29.75 113.571 29.8753 113.216 30.126C112.86 30.3721 112.646 30.7002 112.573 31.1104H116.251Z" fill="white"/>
</g>
<defs>
<filter id="filter0_ddd" x="0.5" y="0.5" width="145" height="61" filterUnits="userSpaceOnUse" color-interpolation-filters="sRGB">
<feFlood flood-opacity="0" result="BackgroundImageFix"/>
<feColorMatrix in="SourceAlpha" type="matrix" values="0 0 0 0 0 0 0 0 0 0 0 0 0 0 0 0 0 0 127 0"/>
<feOffset/>
<feGaussianBlur stdDeviation="5"/>
<feColorMatrix type="matrix" values="0 0 0 0 0.156863 0 0 0 0 0.439216 0 0 0 0 0.984314 0 0 0 1 0"/>
<feBlend mode="normal" in2="BackgroundImageFix" result="effect1_dropShadow"/>
<feColorMatrix in="SourceAlpha" type="matrix" values="0 0 0 0 0 0 0 0 0 0 0 0 0 0 0 0 0 0 127 0"/>
<feOffset/>
<feGaussianBlur stdDeviation="1"/>
<feColorMatrix type="matrix" values="0 0 0 0 0.156863 0 0 0 0 0.439216 0 0 0 0 0.984314 0 0 0 1 0"/>
<feBlend mode="normal" in2="effect1_dropShadow" result="effect2_dropShadow"/>
<feColorMatrix in="SourceAlpha" type="matrix" values="0 0 0 0 0 0 0 0 0 0 0 0 0 0 0 0 0 0 127 0"/>
<feOffset/>
<feGaussianBlur stdDeviation="0.5"/>
<feColorMatrix type="matrix" values="0 0 0 0 0.156863 0 0 0 0 0.439216 0 0 0 0 0.984314 0 0 0 1 0"/>
<feBlend mode="normal" in2="effect2_dropShadow" result="effect3_dropShadow"/>
<feBlend mode="normal" in="SourceGraphic" in2="effect3_dropShadow" result="shape"/>
</filter>
<filter id="filter1_ddd" x="16.918" y="15.9287" width="110.932" height="31.7715" filterUnits="userSpaceOnUse" color-interpolation-filters="sRGB">
<feFlood flood-opacity="0" result="BackgroundImageFix"/>
<feColorMatrix in="SourceAlpha" type="matrix" values="0 0 0 0 0 0 0 0 0 0 0 0 0 0 0 0 0 0 127 0"/>
<feOffset/>
<feGaussianBlur stdDeviation="5"/>
<feColorMatrix type="matrix" values="0 0 0 0 0.156863 0 0 0 0 0.439216 0 0 0 0 0.984314 0 0 0 1 0"/>
<feBlend mode="normal" in2="BackgroundImageFix" result="effect1_dropShadow"/>
<feColorMatrix in="SourceAlpha" type="matrix" values="0 0 0 0 0 0 0 0 0 0 0 0 0 0 0 0 0 0 127 0"/>
<feOffset/>
<feGaussianBlur stdDeviation="1"/>
<feColorMatrix type="matrix" values="0 0 0 0 0.156863 0 0 0 0 0.439216 0 0 0 0 0.984314 0 0 0 1 0"/>
<feBlend mode="normal" in2="effect1_dropShadow" result="effect2_dropShadow"/>
<feColorMatrix in="SourceAlpha" type="matrix" values="0 0 0 0 0 0 0 0 0 0 0 0 0 0 0 0 0 0 127 0"/>
<feOffset/>
<feGaussianBlur stdDeviation="0.5"/>
<feColorMatrix type="matrix" values="0 0 0 0 0.156863 0 0 0 0 0.439216 0 0 0 0 0.984314 0 0 0 1 0"/>
<feBlend mode="normal" in2="effect2_dropShadow" result="effect3_dropShadow"/>
<feBlend mode="normal" in="SourceGraphic" in2="effect3_dropShadow" result="shape"/>
</filter>
</defs>
</svg>
