<?xml version="1.0" encoding="utf-8"?>
<!-- Generator: Adobe Illustrator 21.0.0, SVG Export Plug-In . SVG Version: 6.00 Build 0)  -->
<svg version="1.1" id="Layer_1" xmlns="http://www.w3.org/2000/svg" xmlns:xlink="http://www.w3.org/1999/xlink" x="0px" y="0px"
	 viewBox="0 0 613 212" style="enable-background:new 0 0 613 212;" xml:space="preserve">
<style type="text/css">
	.st0{fill:#FFFFFF;}
</style>
<g>
	<g>
		<path class="st0" d="M238.8,151.7c-1.9,0-3.5,0.6-4.6,1.9c-1.1,1.3-1.7,3.1-1.7,5.3c0,2.3,0.5,4.1,1.6,5.4
			c1.1,1.3,2.6,1.9,4.6,1.9c1.2,0,2.6-0.2,4.2-0.7v1.8c-1.2,0.5-2.7,0.7-4.5,0.7c-2.6,0-4.6-0.8-6-2.4c-1.4-1.6-2.1-3.8-2.1-6.8
			c0-1.8,0.3-3.4,1-4.8c0.7-1.4,1.7-2.4,3-3.2c1.3-0.7,2.8-1.1,4.6-1.1c1.9,0,3.5,0.3,4.9,1l-0.9,1.8
			C241.5,152,240.1,151.7,238.8,151.7z"/>
		<path class="st0" d="M258,161.2c0,2.2-0.5,3.9-1.6,5.1c-1.1,1.2-2.6,1.8-4.5,1.8c-1.2,0-2.2-0.3-3.2-0.8c-0.9-0.6-1.6-1.4-2.1-2.4
			s-0.8-2.3-0.8-3.7c0-2.2,0.5-3.9,1.6-5.1c1.1-1.2,2.6-1.8,4.5-1.8c1.9,0,3.3,0.6,4.4,1.9C257.5,157.4,258,159.1,258,161.2z
			 M247.9,161.2c0,1.7,0.3,3,1,3.9c0.7,0.9,1.7,1.3,3,1.3c1.3,0,2.3-0.4,3-1.3c0.7-0.9,1-2.2,1-3.9c0-1.7-0.3-3-1-3.8
			s-1.7-1.3-3-1.3c-1.3,0-2.3,0.4-3,1.3C248.3,158.2,247.9,159.5,247.9,161.2z"/>
		<path class="st0" d="M272.3,157.9c0,0.9-0.2,1.5-0.7,2c-0.5,0.4-1.2,0.7-2.1,0.9v0.1c1.1,0.2,2,0.5,2.5,1c0.5,0.5,0.8,1.2,0.8,2.1
			c0,1.2-0.5,2.2-1.4,2.9c-0.9,0.7-2.2,1-4,1h-5.9v-13.3h5.8C270.7,154.6,272.3,155.7,272.3,157.9z M270.4,158.1
			c0-0.6-0.2-1.1-0.7-1.4c-0.5-0.3-1.3-0.4-2.3-0.4h-3.8v3.7h3.4c1.2,0,2.1-0.2,2.6-0.5C270.1,159.3,270.4,158.8,270.4,158.1z
			 M270.8,163.9c0-0.7-0.3-1.2-0.8-1.6c-0.5-0.3-1.4-0.5-2.7-0.5h-3.6v4.4h3.7C269.6,166.2,270.8,165.4,270.8,163.9z"/>
		<path class="st0" d="M281.9,168.1c-0.9,0-1.7-0.2-2.4-0.5c-0.7-0.3-1.3-0.8-1.8-1.5h-0.1c0.1,0.8,0.1,1.5,0.1,2.2v5.5h-2v-19.3
			h1.6l0.3,1.8h0.1c0.5-0.7,1.1-1.3,1.8-1.6c0.7-0.3,1.5-0.5,2.4-0.5c1.8,0,3.1,0.6,4.1,1.8s1.4,2.9,1.4,5.1c0,2.2-0.5,3.9-1.5,5.1
			S283.6,168.1,281.9,168.1z M281.6,156c-1.4,0-2.3,0.4-2.9,1.1c-0.6,0.8-0.9,1.9-0.9,3.6v0.4c0,1.9,0.3,3.2,0.9,4
			c0.6,0.8,1.6,1.2,3,1.2c1.1,0,2-0.5,2.7-1.4s1-2.2,1-3.8c0-1.7-0.3-2.9-1-3.8S282.8,156,281.6,156z"/>
		<path class="st0" d="M296.5,168.1c-2,0-3.5-0.6-4.6-1.8c-1.1-1.2-1.7-2.9-1.7-5c0-2.1,0.5-3.8,1.6-5.1s2.5-1.9,4.2-1.9
			c1.7,0,3,0.5,4,1.6s1.5,2.5,1.5,4.3v1.3h-9.2c0,1.6,0.4,2.7,1.2,3.6c0.7,0.8,1.8,1.2,3.2,1.2c1.4,0,2.8-0.3,4.2-0.9v1.8
			c-0.7,0.3-1.4,0.5-2,0.7C298.2,168,297.4,168.1,296.5,168.1z M296,156c-1.1,0-1.9,0.3-2.6,1c-0.6,0.7-1,1.7-1.1,2.9h6.9
			c0-1.3-0.3-2.2-0.8-2.9C297.8,156.4,297,156,296,156z"/>
		<path class="st0" d="M311.7,165.9l0.4-1.1l0.5-1.4l3.6-8.8h2.6v13.3H317v-11l-0.2,0.7l-0.7,1.9l-3.4,8.4h-1.7l-3.4-8.4
			c-0.4-1.1-0.7-1.9-0.9-2.5v11h-1.8v-13.3h2.5l3.5,8.4C311.1,163.9,311.4,164.9,311.7,165.9z"/>
		<path class="st0" d="M328.7,168.1c-2,0-3.5-0.6-4.6-1.8c-1.1-1.2-1.7-2.9-1.7-5c0-2.1,0.5-3.8,1.6-5.1s2.5-1.9,4.2-1.9
			c1.7,0,3,0.5,4,1.6s1.5,2.5,1.5,4.3v1.3h-9.2c0,1.6,0.4,2.7,1.2,3.6c0.7,0.8,1.8,1.2,3.2,1.2c1.4,0,2.8-0.3,4.2-0.9v1.8
			c-0.7,0.3-1.4,0.5-2,0.7C330.4,168,329.6,168.1,328.7,168.1z M328.1,156c-1.1,0-1.9,0.3-2.6,1c-0.6,0.7-1,1.7-1.1,2.9h6.9
			c0-1.3-0.3-2.2-0.8-2.9C330,156.4,329.2,156,328.1,156z"/>
		<path class="st0" d="M339,154.6v5.6h7.4v-5.6h2v13.3h-2v-6H339v6h-2v-13.3H339z"/>
		<path class="st0" d="M354.8,154.6v5.6h7.4v-5.6h2v13.3h-2v-6h-7.4v6h-2v-13.3H354.8z"/>
		<path class="st0" d="M379.9,161.2c0,2.2-0.5,3.9-1.6,5.1c-1.1,1.2-2.6,1.8-4.5,1.8c-1.2,0-2.2-0.3-3.2-0.8
			c-0.9-0.6-1.6-1.4-2.1-2.4s-0.8-2.3-0.8-3.7c0-2.2,0.5-3.9,1.6-5.1c1.1-1.2,2.6-1.8,4.5-1.8c1.9,0,3.3,0.6,4.4,1.9
			C379.4,157.4,379.9,159.1,379.9,161.2z M369.8,161.2c0,1.7,0.3,3,1,3.9c0.7,0.9,1.7,1.3,3,1.3c1.3,0,2.3-0.4,3-1.3
			c0.7-0.9,1-2.2,1-3.9c0-1.7-0.3-3-1-3.8s-1.7-1.3-3-1.3c-1.3,0-2.3,0.4-3,1.3C370.2,158.2,369.8,159.5,369.8,161.2z"/>
		<path class="st0" d="M389.1,168.1c-2,0-3.5-0.6-4.6-1.8c-1.1-1.2-1.7-2.9-1.7-5c0-2.1,0.5-3.8,1.6-5.1s2.5-1.9,4.2-1.9
			c1.7,0,3,0.5,4,1.6s1.5,2.5,1.5,4.3v1.3h-9.2c0,1.6,0.4,2.7,1.2,3.6c0.7,0.8,1.8,1.2,3.2,1.2c1.4,0,2.8-0.3,4.2-0.9v1.8
			c-0.7,0.3-1.4,0.5-2,0.7C390.7,168,390,168.1,389.1,168.1z M388.5,156c-1.1,0-1.9,0.3-2.6,1c-0.6,0.7-1,1.7-1.1,2.9h6.9
			c0-1.3-0.3-2.2-0.8-2.9C390.4,156.4,389.6,156,388.5,156z"/>
		<path class="st0" d="M415.4,172.5h-2v-4.6h-9.3v4.6h-1.9v-6.3h1c1.1-1.5,1.9-3.2,2.5-5.2s0.9-4.1,1-6.4h6.7v11.6h1.9V172.5z
			 M411.5,166.1v-10h-3c-0.1,1.8-0.5,3.6-1,5.4c-0.6,1.8-1.3,3.3-2.2,4.5H411.5z"/>
		<path class="st0" d="M429.5,161.2c0,2.2-0.5,3.9-1.6,5.1c-1.1,1.2-2.6,1.8-4.5,1.8c-1.2,0-2.2-0.3-3.2-0.8
			c-0.9-0.6-1.6-1.4-2.1-2.4s-0.8-2.3-0.8-3.7c0-2.2,0.5-3.9,1.6-5.1c1.1-1.2,2.6-1.8,4.5-1.8c1.9,0,3.3,0.6,4.4,1.9
			C429,157.4,429.5,159.1,429.5,161.2z M419.4,161.2c0,1.7,0.3,3,1,3.9c0.7,0.9,1.7,1.3,3,1.3c1.3,0,2.3-0.4,3-1.3
			c0.7-0.9,1-2.2,1-3.9c0-1.7-0.3-3-1-3.8s-1.7-1.3-3-1.3c-1.3,0-2.3,0.4-3,1.3C419.7,158.2,419.4,159.5,419.4,161.2z"/>
		<path class="st0" d="M435.1,167.9h-2v-13.3h11.2v13.3h-2v-11.5h-7.1V167.9z"/>
		<path class="st0" d="M459.9,161.2c0,2.2-0.5,3.9-1.6,5.1c-1.1,1.2-2.6,1.8-4.5,1.8c-1.2,0-2.2-0.3-3.2-0.8
			c-0.9-0.6-1.6-1.4-2.1-2.4s-0.8-2.3-0.8-3.7c0-2.2,0.5-3.9,1.6-5.1c1.1-1.2,2.6-1.8,4.5-1.8c1.9,0,3.3,0.6,4.4,1.9
			C459.4,157.4,459.9,159.1,459.9,161.2z M449.8,161.2c0,1.7,0.3,3,1,3.9c0.7,0.9,1.7,1.3,3,1.3c1.3,0,2.3-0.4,3-1.3
			c0.7-0.9,1-2.2,1-3.9c0-1.7-0.3-3-1-3.8s-1.7-1.3-3-1.3c-1.3,0-2.3,0.4-3,1.3C450.1,158.2,449.8,159.5,449.8,161.2z"/>
		<path class="st0" d="M473.4,167.9h-2v-11.6h-4c-0.2,2.9-0.5,5.2-0.9,6.8c-0.4,1.7-0.9,2.9-1.5,3.7c-0.6,0.8-1.4,1.2-2.4,1.2
			c-0.4,0-0.8,0-1-0.1v-1.5c0.2,0,0.4,0.1,0.6,0.1c0.9,0,1.7-1,2.2-2.9c0.5-2,1-4.9,1.2-8.9h7.8V167.9z"/>
		<path class="st0" d="M479.6,154.6v5.6h7.4v-5.6h2v13.3h-2v-6h-7.4v6h-2v-13.3H479.6z"/>
		<path class="st0" d="M495.3,154.6v8.4l-0.1,2.2l0,0.7l7.2-11.3h2.5v13.3h-1.9v-8.1l0-1.6l0.1-1.6l-7.2,11.3h-2.5v-13.3H495.3z"/>
		<path class="st0" d="M518.1,156.3h-4.3v11.6h-2v-11.6h-4.3v-1.7h10.6V156.3z"/>
		<path class="st0" d="M526.3,168.1c-2,0-3.5-0.6-4.6-1.8c-1.1-1.2-1.7-2.9-1.7-5c0-2.1,0.5-3.8,1.6-5.1s2.5-1.9,4.2-1.9
			c1.7,0,3,0.5,4,1.6s1.5,2.5,1.5,4.3v1.3H522c0,1.6,0.4,2.7,1.2,3.6c0.7,0.8,1.8,1.2,3.2,1.2c1.4,0,2.8-0.3,4.2-0.9v1.8
			c-0.7,0.3-1.4,0.5-2,0.7C528,168,527.2,168.1,526.3,168.1z M525.7,156c-1.1,0-1.9,0.3-2.6,1c-0.6,0.7-1,1.7-1.1,2.9h6.9
			c0-1.3-0.3-2.2-0.8-2.9C527.6,156.4,526.8,156,525.7,156z"/>
		<path class="st0" d="M544.5,167.9h-2v-11.6h-4c-0.2,2.9-0.5,5.2-0.9,6.8c-0.4,1.7-0.9,2.9-1.5,3.7c-0.6,0.8-1.4,1.2-2.4,1.2
			c-0.4,0-0.8,0-1-0.1v-1.5c0.2,0,0.4,0.1,0.6,0.1c0.9,0,1.7-1,2.2-2.9c0.5-2,1-4.9,1.2-8.9h7.8V167.9z"/>
		<path class="st0" d="M550.8,160.1h4.1c3.4,0,5.1,1.2,5.1,3.7c0,1.3-0.4,2.3-1.3,3c-0.9,0.7-2.2,1-3.9,1h-6v-13.3h2V160.1z
			 M550.8,161.8v4.4h3.9c1.1,0,1.9-0.2,2.4-0.6c0.6-0.4,0.8-0.9,0.8-1.7c0-0.7-0.3-1.3-0.8-1.6c-0.5-0.3-1.4-0.5-2.6-0.5H550.8z"/>
		<path class="st0" d="M565.5,154.6v5.6h7.4v-5.6h2v13.3h-2v-6h-7.4v6h-2v-13.3H565.5z"/>
		<path class="st0" d="M590.7,161.2c0,2.2-0.5,3.9-1.6,5.1c-1.1,1.2-2.6,1.8-4.5,1.8c-1.2,0-2.2-0.3-3.2-0.8
			c-0.9-0.6-1.6-1.4-2.1-2.4s-0.8-2.3-0.8-3.7c0-2.2,0.5-3.9,1.6-5.1c1.1-1.2,2.6-1.8,4.5-1.8c1.9,0,3.3,0.6,4.4,1.9
			C590.1,157.4,590.7,159.1,590.7,161.2z M580.6,161.2c0,1.7,0.3,3,1,3.9c0.7,0.9,1.7,1.3,3,1.3c1.3,0,2.3-0.4,3-1.3
			c0.7-0.9,1-2.2,1-3.9c0-1.7-0.3-3-1-3.8s-1.7-1.3-3-1.3c-1.3,0-2.3,0.4-3,1.3C580.9,158.2,580.6,159.5,580.6,161.2z"/>
		<path class="st0" d="M599.8,168.1c-2,0-3.5-0.6-4.6-1.8c-1.1-1.2-1.7-2.9-1.7-5c0-2.1,0.5-3.8,1.6-5.1s2.5-1.9,4.2-1.9
			c1.7,0,3,0.5,4,1.6s1.5,2.5,1.5,4.3v1.3h-9.2c0,1.6,0.4,2.7,1.2,3.6c0.7,0.8,1.8,1.2,3.2,1.2c1.4,0,2.8-0.3,4.2-0.9v1.8
			c-0.7,0.3-1.4,0.5-2,0.7C601.5,168,600.7,168.1,599.8,168.1z M599.3,156c-1.1,0-1.9,0.3-2.6,1c-0.6,0.7-1,1.7-1.1,2.9h6.9
			c0-1.3-0.3-2.2-0.8-2.9C601.1,156.4,600.3,156,599.3,156z"/>
		<path class="st0" d="M242.4,192.9c0,2.2-0.5,3.9-1.6,5.1c-1.1,1.2-2.6,1.8-4.5,1.8c-1.2,0-2.2-0.3-3.2-0.8
			c-0.9-0.6-1.6-1.4-2.1-2.4s-0.8-2.3-0.8-3.7c0-2.2,0.5-3.9,1.6-5.1c1.1-1.2,2.6-1.8,4.5-1.8c1.9,0,3.3,0.6,4.4,1.9
			C241.8,189.2,242.4,190.8,242.4,192.9z M232.3,192.9c0,1.7,0.3,3,1,3.9c0.7,0.9,1.7,1.3,3,1.3c1.3,0,2.3-0.4,3-1.3
			c0.7-0.9,1-2.2,1-3.9c0-1.7-0.3-3-1-3.8s-1.7-1.3-3-1.3c-1.3,0-2.3,0.4-3,1.3C232.6,189.9,232.3,191.2,232.3,192.9z"/>
		<path class="st0" d="M245.2,191.6c0-2.9,0.4-5.2,1.3-6.8c0.9-1.6,2.2-2.6,4.1-3c2.3-0.5,4.3-0.9,6.1-1.2l0.4,1.8
			c-2.8,0.5-4.8,0.8-6,1.1c-1.2,0.3-2.1,0.9-2.6,1.9s-0.9,2.3-1,4.1h0.1c0.5-0.7,1.1-1.2,1.9-1.6c0.8-0.4,1.6-0.6,2.5-0.6
			c1.6,0,2.9,0.5,3.8,1.6c0.9,1.1,1.4,2.5,1.4,4.4c0,2.1-0.5,3.7-1.6,4.9c-1.1,1.2-2.5,1.8-4.4,1.8c-1.9,0-3.3-0.7-4.4-2.1
			C245.7,196.3,245.2,194.2,245.2,191.6z M251.4,198.1c2.5,0,3.7-1.6,3.7-4.7c0-3-1.1-4.5-3.4-4.5c-0.6,0-1.2,0.1-1.8,0.4
			c-0.6,0.3-1.1,0.6-1.6,1c-0.5,0.4-0.8,0.9-1.1,1.3c0,2.1,0.3,3.7,1,4.9C249,197.6,250,198.1,251.4,198.1z"/>
		<path class="st0" d="M266.9,199.8c-0.9,0-1.7-0.2-2.4-0.5c-0.7-0.3-1.3-0.8-1.8-1.5h-0.1c0.1,0.8,0.1,1.5,0.1,2.2v5.5h-2v-19.3
			h1.6l0.3,1.8h0.1c0.5-0.7,1.1-1.3,1.8-1.6c0.7-0.3,1.5-0.5,2.4-0.5c1.8,0,3.1,0.6,4.1,1.8s1.4,2.9,1.4,5.1c0,2.2-0.5,3.9-1.5,5.1
			S268.6,199.8,266.9,199.8z M266.6,187.8c-1.4,0-2.3,0.4-2.9,1.1c-0.6,0.8-0.9,1.9-0.9,3.6v0.4c0,1.9,0.3,3.2,0.9,4
			c0.6,0.8,1.6,1.2,3,1.2c1.1,0,2-0.5,2.7-1.4s1-2.2,1-3.8c0-1.7-0.3-2.9-1-3.8S267.8,187.8,266.6,187.8z"/>
		<path class="st0" d="M284.1,199.6l-0.4-1.9h-0.1c-0.7,0.8-1.3,1.4-2,1.7s-1.5,0.4-2.5,0.4c-1.3,0-2.3-0.3-3.1-1s-1.1-1.6-1.1-2.9
			c0-2.7,2.1-4.1,6.4-4.2l2.3-0.1v-0.8c0-1-0.2-1.8-0.7-2.3c-0.4-0.5-1.2-0.7-2.2-0.7c-1.1,0-2.4,0.3-3.8,1l-0.6-1.5
			c0.7-0.4,1.4-0.6,2.2-0.8c0.8-0.2,1.6-0.3,2.3-0.3c1.6,0,2.8,0.4,3.5,1.1c0.8,0.7,1.1,1.8,1.1,3.4v9.1H284.1z M279.5,198.2
			c1.3,0,2.2-0.3,3-1c0.7-0.7,1.1-1.6,1.1-2.9v-1.2l-2,0.1c-1.6,0.1-2.8,0.3-3.5,0.7c-0.7,0.4-1.1,1.1-1.1,2.1
			c0,0.7,0.2,1.3,0.7,1.7C278.1,198,278.8,198.2,279.5,198.2z"/>
		<path class="st0" d="M292.3,191.8c2.5,0,3.8-0.7,3.8-2.1c0-1.3-1-2-3.1-2c-0.6,0-1.2,0.1-1.7,0.2s-1.2,0.3-2,0.7l-0.7-1.6
			c1.4-0.6,2.9-0.9,4.5-0.9c1.5,0,2.7,0.3,3.6,0.9c0.9,0.6,1.3,1.5,1.3,2.6c0,1.5-0.8,2.5-2.5,2.9v0.1c1,0.3,1.8,0.7,2.2,1.3
			c0.5,0.6,0.7,1.2,0.7,2.1c0,1.2-0.5,2.2-1.5,2.9s-2.4,1-4.1,1c-1.9,0-3.4-0.3-4.4-0.9v-1.8c1.5,0.7,3,1,4.5,1c1.2,0,2-0.2,2.6-0.6
			c0.6-0.4,0.9-1,0.9-1.7c0-1.5-1.3-2.3-3.8-2.3h-1.8v-1.7H292.3z"/>
		<path class="st0" d="M313.2,192.9c0,2.2-0.5,3.9-1.6,5.1c-1.1,1.2-2.6,1.8-4.5,1.8c-1.2,0-2.2-0.3-3.2-0.8
			c-0.9-0.6-1.6-1.4-2.1-2.4s-0.8-2.3-0.8-3.7c0-2.2,0.5-3.9,1.6-5.1c1.1-1.2,2.6-1.8,4.5-1.8c1.9,0,3.3,0.6,4.4,1.9
			C312.6,189.2,313.2,190.8,313.2,192.9z M303.1,192.9c0,1.7,0.3,3,1,3.9c0.7,0.9,1.7,1.3,3,1.3c1.3,0,2.3-0.4,3-1.3
			c0.7-0.9,1-2.2,1-3.9c0-1.7-0.3-3-1-3.8s-1.7-1.3-3-1.3c-1.3,0-2.3,0.4-3,1.3C303.4,189.9,303.1,191.2,303.1,192.9z"/>
		<path class="st0" d="M327.5,189.6c0,0.9-0.2,1.5-0.7,2c-0.5,0.4-1.2,0.7-2.1,0.9v0.1c1.1,0.2,2,0.5,2.5,1c0.5,0.5,0.8,1.2,0.8,2.1
			c0,1.2-0.5,2.2-1.4,2.9c-0.9,0.7-2.2,1-4,1h-5.9v-13.3h5.8C325.8,186.3,327.5,187.4,327.5,189.6z M325.5,189.8
			c0-0.6-0.2-1.1-0.7-1.4c-0.5-0.3-1.3-0.4-2.3-0.4h-3.8v3.7h3.4c1.2,0,2.1-0.2,2.6-0.5C325.3,191,325.5,190.5,325.5,189.8z
			 M325.9,195.6c0-0.7-0.3-1.2-0.8-1.6c-0.5-0.3-1.4-0.5-2.7-0.5h-3.6v4.4h3.7C324.7,197.9,325.9,197.1,325.9,195.6z"/>
		<path class="st0" d="M339,199.6l-0.4-1.9h-0.1c-0.7,0.8-1.3,1.4-2,1.7s-1.5,0.4-2.5,0.4c-1.3,0-2.3-0.3-3.1-1s-1.1-1.6-1.1-2.9
			c0-2.7,2.1-4.1,6.4-4.2l2.3-0.1v-0.8c0-1-0.2-1.8-0.7-2.3c-0.4-0.5-1.2-0.7-2.2-0.7c-1.1,0-2.4,0.3-3.8,1l-0.6-1.5
			c0.7-0.4,1.4-0.6,2.2-0.8c0.8-0.2,1.6-0.3,2.3-0.3c1.6,0,2.8,0.4,3.5,1.1c0.8,0.7,1.1,1.8,1.1,3.4v9.1H339z M334.5,198.2
			c1.3,0,2.2-0.3,3-1c0.7-0.7,1.1-1.6,1.1-2.9v-1.2l-2,0.1c-1.6,0.1-2.8,0.3-3.5,0.7c-0.7,0.4-1.1,1.1-1.1,2.1
			c0,0.7,0.2,1.3,0.7,1.7C333.1,198,333.7,198.2,334.5,198.2z"/>
		<path class="st0" d="M346.7,186.3v5.6h7.4v-5.6h2v13.3h-2v-6h-7.4v6h-2v-13.3H346.7z"/>
		<path class="st0" d="M362.3,186.3v8.4l-0.1,2.2l0,0.7l7.2-11.3h2.5v13.3H370v-8.1l0-1.6l0.1-1.6l-7.2,11.3h-2.5v-13.3H362.3z"/>
		<path class="st0" d="M381.7,199.8c-2,0-3.5-0.6-4.6-1.8c-1.1-1.2-1.7-2.9-1.7-5c0-2.1,0.5-3.8,1.6-5.1s2.5-1.9,4.2-1.9
			c1.7,0,3,0.5,4,1.6s1.5,2.5,1.5,4.3v1.3h-9.2c0,1.6,0.4,2.7,1.2,3.6c0.7,0.8,1.8,1.2,3.2,1.2c1.4,0,2.8-0.3,4.2-0.9v1.8
			c-0.7,0.3-1.4,0.5-2,0.7C383.4,199.8,382.6,199.8,381.7,199.8z M381.2,187.7c-1.1,0-1.9,0.3-2.6,1c-0.6,0.7-1,1.7-1.1,2.9h6.9
			c0-1.3-0.3-2.2-0.8-2.9C383,188.1,382.2,187.7,381.2,187.7z"/>
		<path class="st0" d="M408,204.2h-2v-4.6h-9.3v4.6h-1.9v-6.3h1c1.1-1.5,1.9-3.2,2.5-5.2s0.9-4.1,1-6.4h6.7v11.6h1.9V204.2z
			 M404.2,197.9v-10h-3c-0.1,1.8-0.5,3.6-1,5.4c-0.6,1.8-1.3,3.3-2.2,4.5H404.2z"/>
		<path class="st0" d="M420.6,199.6h-2V188h-4c-0.2,2.9-0.5,5.2-0.9,6.8c-0.4,1.7-0.9,2.9-1.5,3.7c-0.6,0.8-1.4,1.2-2.4,1.2
			c-0.4,0-0.8,0-1-0.1v-1.5c0.2,0,0.4,0.1,0.6,0.1c0.9,0,1.7-1,2.2-2.9c0.5-2,1-4.9,1.2-8.9h7.8V199.6z"/>
		<path class="st0" d="M425.5,199.6h-2.4l3.8-5.6c-1-0.2-1.8-0.7-2.4-1.3s-0.8-1.5-0.8-2.5c0-1.2,0.4-2.2,1.2-2.9c0.8-0.7,2-1,3.4-1
			h5.9v13.3h-2v-5.3H429L425.5,199.6z M425.8,190.2c0,1.5,1.1,2.3,3.3,2.3h3.2V188h-3.6C426.8,188,425.8,188.8,425.8,190.2z"/>
		<path class="st0" d="M455,197.9h5.9v-11.6h2v13.3h-17.8v-13.3h2v11.6h5.9v-11.6h2V197.9z"/>
		<path class="st0" d="M474.9,186.3h2.2l-5.7,6.4l6.2,6.9h-2.4l-6.1-6.7v6.7h-2v-13.3h2v6.5L474.9,186.3z"/>
		<path class="st0" d="M491.5,192.9c0,2.2-0.5,3.9-1.6,5.1c-1.1,1.2-2.6,1.8-4.5,1.8c-1.2,0-2.2-0.3-3.2-0.8
			c-0.9-0.6-1.6-1.4-2.1-2.4s-0.8-2.3-0.8-3.7c0-2.2,0.5-3.9,1.6-5.1c1.1-1.2,2.6-1.8,4.5-1.8c1.9,0,3.3,0.6,4.4,1.9
			C491,189.2,491.5,190.8,491.5,192.9z M481.4,192.9c0,1.7,0.3,3,1,3.9c0.7,0.9,1.7,1.3,3,1.3c1.3,0,2.3-0.4,3-1.3
			c0.7-0.9,1-2.2,1-3.9c0-1.7-0.3-3-1-3.8s-1.7-1.3-3-1.3c-1.3,0-2.3,0.4-3,1.3C481.8,189.9,481.4,191.2,481.4,192.9z"/>
		<path class="st0" d="M505,199.6h-2V188h-4c-0.2,2.9-0.5,5.2-0.9,6.8c-0.4,1.7-0.9,2.9-1.5,3.7c-0.6,0.8-1.4,1.2-2.4,1.2
			c-0.4,0-0.8,0-1-0.1v-1.5c0.2,0,0.4,0.1,0.6,0.1c0.9,0,1.7-1,2.2-2.9c0.5-2,1-4.9,1.2-8.9h7.8V199.6z"/>
		<path class="st0" d="M511.3,191.8h4.1c3.4,0,5.1,1.2,5.1,3.7c0,1.3-0.4,2.3-1.3,3c-0.9,0.7-2.2,1-3.9,1h-6v-13.3h2V191.8z
			 M511.3,193.5v4.4h3.9c1.1,0,1.9-0.2,2.4-0.6c0.6-0.4,0.8-0.9,0.8-1.7c0-0.7-0.3-1.3-0.8-1.6c-0.5-0.3-1.4-0.5-2.6-0.5H511.3z"/>
		<path class="st0" d="M525.9,186.3v5.6h7.4v-5.6h2v13.3h-2v-6h-7.4v6h-2v-13.3H525.9z"/>
		<path class="st0" d="M541.6,186.3v8.4l-0.1,2.2l0,0.7l7.2-11.3h2.5v13.3h-1.9v-8.1l0-1.6l0.1-1.6l-7.2,11.3h-2.5v-13.3H541.6z"/>
		<path class="st0" d="M563.1,186.3h2.2l-5.7,6.4l6.2,6.9h-2.4l-6.1-6.7v6.7h-2v-13.3h2v6.5L563.1,186.3z"/>
		<path class="st0" d="M579.8,192.9c0,2.2-0.5,3.9-1.6,5.1c-1.1,1.2-2.6,1.8-4.5,1.8c-1.2,0-2.2-0.3-3.2-0.8
			c-0.9-0.6-1.6-1.4-2.1-2.4s-0.8-2.3-0.8-3.7c0-2.2,0.5-3.9,1.6-5.1c1.1-1.2,2.6-1.8,4.5-1.8c1.9,0,3.3,0.6,4.4,1.9
			C579.2,189.2,579.8,190.8,579.8,192.9z M569.6,192.9c0,1.7,0.3,3,1,3.9c0.7,0.9,1.7,1.3,3,1.3c1.3,0,2.3-0.4,3-1.3
			c0.7-0.9,1-2.2,1-3.9c0-1.7-0.3-3-1-3.8s-1.7-1.3-3-1.3c-1.3,0-2.3,0.4-3,1.3C570,189.9,569.6,191.2,569.6,192.9z"/>
		<path class="st0" d="M594.1,189.6c0,0.9-0.2,1.5-0.7,2c-0.5,0.4-1.2,0.7-2.1,0.9v0.1c1.1,0.2,2,0.5,2.5,1c0.5,0.5,0.8,1.2,0.8,2.1
			c0,1.2-0.5,2.2-1.4,2.9c-0.9,0.7-2.2,1-4,1h-5.9v-13.3h5.8C592.4,186.3,594.1,187.4,594.1,189.6z M592.1,189.8
			c0-0.6-0.2-1.1-0.7-1.4c-0.5-0.3-1.3-0.4-2.3-0.4h-3.8v3.7h3.4c1.2,0,2.1-0.2,2.6-0.5C591.8,191,592.1,190.5,592.1,189.8z
			 M592.5,195.6c0-0.7-0.3-1.2-0.8-1.6c-0.5-0.3-1.4-0.5-2.7-0.5h-3.6v4.4h3.7C591.3,197.9,592.5,197.1,592.5,195.6z"/>
	</g>
</g>
<g>
	<g>
		<g>
			<path class="st0" d="M35.9,68.6c7,9.6,13.4,19.7,18.8,30.3c5.5,10.5,10,21.6,13.4,33.1c3.4,11.5,6.7,26.9,6,35.1
				c-0.3,3.2-2.3,6.4-5.3,6.5c-3,0.1-5.9-2.7-5.7-7.5c0.3-8.1,0.4-21.2-2.2-32.2c-1.2-5.6-3-11-4.9-16.4c-2.1-5.3-4.4-10.6-7-15.7
				c-5.3-10.2-11.6-19.8-19-28.7c-7.3-8.8-12.1-13.5-23.3-23c-3-2.6-4.1-5.7-2.4-8.5c1.6-2.6,5.2-3,8.1-0.5
				C16.7,44.7,28.8,59,35.9,68.6z"/>
			<path class="st0" d="M27.7,89.1c4.6,6.5,8.9,13.3,12.5,20.5c3.7,7.1,6.8,14.5,9.2,22.3c2.4,7.7,5.3,18.2,4.6,24.3
				c-0.3,2.7-2,5.7-5.1,5.9c-3,0.2-5.5-2.7-5.4-6.5c0.3-7.3,0.3-14.5-1.3-21.8c-0.7-3.7-1.9-7.3-3.1-10.8c-1.3-3.5-2.8-7-4.6-10.4
				c-3.5-6.7-7.7-13.1-12.7-18.8C17,87.9,12.2,83.8,6.4,79c-2.8-2.3-4.3-5.8-2.5-8.3c1.7-2.5,5.4-2.9,8.3-0.6
				C17.1,74.2,23.1,82.6,27.7,89.1z"/>
			<path class="st0" d="M19.6,109.6c2.3,3.5,4.3,7,6.2,10.6c1.9,3.7,3.6,7.4,5,11.4c1.4,4,3,9.6,3.1,13.1c0.1,3.3-1.4,6-4.4,6.5
				c-3.1,0.5-5.3-1.4-5.8-4c-0.3-1.5,0-3.8,0.2-5.3c0.4-3.3,0.4-4.9-0.2-8.4c-0.6-3.6-1.8-7.1-3.5-10.3c-1.7-3.3-3.9-6.3-6.4-9
				c-2.5-2.7-5-4.4-8.2-6.9c-3.1-2.4-4.4-4.7-3-7.5C4,97,7.3,96.3,10,97.9C12.8,99.6,17.3,106.2,19.6,109.6z"/>
			<path class="st0" d="M8.5,132.4"/>
		</g>
		<g>
			<path class="st0" d="M135.8,69.4c-7,9.6-13.4,19.7-18.8,30.3c-5.5,10.5-10,21.6-13.4,33.1c-3.4,11.5-6.7,26.9-6,35.1
				c0.3,3.2,2.3,6.4,5.3,6.5c3,0.1,5.9-2.7,5.7-7.5c-0.3-8.1-0.4-21.2,2.2-32.2c1.2-5.6,3-11,4.9-16.4c2.1-5.3,4.4-10.6,7-15.7
				c5.3-10.2,11.6-19.8,19-28.7c7.3-8.8,12.1-13.5,23.3-23c3-2.6,4.1-5.7,2.4-8.5c-1.6-2.6-5.2-3-8.1-0.5
				C155,45.5,142.9,59.8,135.8,69.4z"/>
			<path class="st0" d="M144,89.9c-4.6,6.5-8.9,13.3-12.5,20.5c-3.7,7.1-6.8,14.5-9.2,22.3c-2.4,7.7-5.3,18.2-4.6,24.3
				c0.3,2.7,2,5.7,5.1,5.9c3,0.2,5.5-2.7,5.4-6.5c-0.3-7.3-0.3-14.5,1.3-21.8c0.7-3.7,1.9-7.3,3.1-10.8c1.3-3.5,2.8-7,4.6-10.4
				c3.5-6.7,7.7-13.1,12.7-18.8c4.9-5.8,9.8-9.8,15.5-14.6c2.8-2.3,4.3-5.8,2.5-8.3c-1.7-2.5-5.4-2.9-8.3-0.6
				C154.6,75,148.6,83.4,144,89.9z"/>
			<path class="st0" d="M152.1,110.4c-2.3,3.5-4.3,7-6.2,10.6c-1.9,3.7-3.6,7.4-5,11.4c-1.4,4-3,9.6-3.1,13.1
				c-0.1,3.3,1.4,6,4.4,6.5c3.1,0.5,5.3-1.4,5.8-4c0.3-1.5,0-3.8-0.2-5.3c-0.4-3.3-0.4-4.9,0.2-8.4c0.6-3.6,1.8-7.1,3.5-10.3
				c1.7-3.3,3.9-6.3,6.4-9c2.5-2.7,5-4.4,8.2-6.9c3.1-2.4,4.4-4.7,3-7.5c-1.4-2.8-4.7-3.5-7.4-1.9
				C158.9,100.4,154.4,107,152.1,110.4z"/>
			<path class="st0" d="M163.2,133.2"/>
		</g>
		<path class="st0" d="M144.6,25.4c-2.6-2.2-5.9-1.1-7.9,1.3c-3.2,3.7-6.5,9.3-10,13.6c-3.5,4.3-7.2,8.4-11.3,11.9
			c-4.1,3.6-8.6,6.6-13.4,8.9c-4.8,2.2-10,3.6-15.2,3.7c0,0-0.1,0-0.1,0c0,0-0.1,0-0.1,0c-5.2-0.1-10.4-1.5-15.2-3.7
			c-4.8-2.3-9.3-5.3-13.4-8.9c-4.1-3.6-7.8-7.7-11.3-11.9c-3.5-4.3-6.8-9.9-10-13.6c-2.1-2.4-5.3-3.5-7.9-1.3
			c-2.3,2-1.5,5.5,0.4,8.3c6.6,9.9,14.8,17,24.2,24.2c4.7,3.6,9.8,6.9,15.4,9.3c5.5,2.4,11.6,4,17.8,4c0.1,0,0.1,0,0.2,0
			c0.1,0,0.1,0,0.2,0c6.2-0.1,12.3-1.6,17.8-4c5.6-2.4,10.6-5.7,15.4-9.3c9.4-7.2,17.5-14.4,24.2-24.2
			C146.1,30.8,146.9,27.3,144.6,25.4z"/>
		<path class="st0" d="M126.7,14.9c-2.5-2.3-5.6-1.7-7.7,1.1c-2.1,2.9-4.6,6.6-6.8,9.6c-2.2,2.9-4.6,5.6-7.2,8
			c-2.6,2.4-5.5,4.4-8.6,5.9c-3.1,1.5-6.4,2.3-9.7,2.4c0,0,0,0-0.1,0c0,0,0,0-0.1,0c-3.3-0.1-6.6-0.9-9.7-2.4
			c-3.1-1.5-6-3.5-8.6-5.9c-2.7-2.4-5-5.1-7.2-8c-2.2-2.9-4.7-6.6-6.8-9.6c-2-2.8-5.2-3.4-7.7-1.1c-2.4,2.2-0.9,6,0.5,8
			c3.8,5.3,10.1,11.5,16.5,16.4c3.3,2.4,6.7,4.6,10.6,6.2c3.8,1.7,8,2.7,12.3,2.8c0,0,0.1,0,0.1,0c0,0,0.1,0,0.1,0
			c4.3,0,8.5-1.1,12.3-2.8c3.9-1.6,7.3-3.9,10.6-6.2c6.4-4.8,12.8-11.1,16.5-16.4C127.6,20.9,129,17.1,126.7,14.9z"/>
		<path class="st0" d="M109.4,4c-2.2-2.7-6.6-2.4-9.2,2.3c-0.8,1.5-3.8,6.8-5.7,8.5c-2.4,2.2-5.2,4-8,4c-2.8,0-5.5-1.8-8-4
			c-1.8-1.7-4.8-7-5.7-8.5c-2.6-4.6-6.9-4.9-9.2-2.3c-1.8,2.1-0.8,5.7,0.9,8.1c2.2,3.2,5.8,5.9,9.3,8.3c3.5,2.4,7.7,4.6,12.6,4.7
			c0,0,0,0,0,0c0,0,0,0,0,0c4.9-0.1,9.1-2.2,12.6-4.7c3.5-2.4,7.1-5.1,9.3-8.3C110.2,9.7,111.2,6.2,109.4,4z"/>
	</g>
	<path class="st0" d="M249.9,102.7c-0.3-0.4-0.7-0.9-1.3-1.3c-0.6-0.4-1.5-0.7-2.5-1c-1-0.3-2.3-0.6-3.8-0.9
		c-1.9-0.4-3.7-0.9-5.2-1.4c-1.6-0.6-2.9-1.3-4.1-2.1c-1.1-0.8-2-1.7-2.6-2.7c-0.6-1.1-0.9-2.3-0.9-3.7c0-1.3,0.3-2.6,1-3.8
		c0.6-1.2,1.6-2.3,2.8-3.2c1.2-0.9,2.6-1.6,4.3-2.2c1.7-0.5,3.5-0.8,5.6-0.8c2.2,0,4.2,0.3,5.9,0.8c1.7,0.5,3.2,1.3,4.4,2.2
		c1.2,0.9,2.1,2,2.8,3.3l0,0c1,1.9-0.4,3.8-2.5,4.1c-1.1,0.2-2.6,0.2-4.3-2.2c-0.7-1.1-2.3-2-3.2-2.3c-0.9-0.3-1.9-0.5-3.1-0.5
		c-1.1,0-2.1,0.1-2.9,0.3c-0.8,0.2-1.5,0.6-2,1c-0.5,0.4-0.9,0.8-1.2,1.3c-0.3,0.5-0.4,1-0.4,1.6c0,0.6,0.1,1.1,0.3,1.5
		c0.2,0.5,0.6,0.9,1.2,1.2c0.5,0.4,1.3,0.7,2.2,1c0.9,0.3,2.1,0.6,3.6,0.8c2,0.4,3.8,0.8,5.5,1.3c1.7,0.5,3.1,1.2,4.3,1.9
		c1.2,0.8,2.1,1.8,2.7,2.9c0.7,1.1,1,2.4,1,3.9c0,1.5-0.3,2.8-1,4c-0.7,1.2-1.6,2.3-2.9,3.1c-1.3,0.9-2.8,1.6-4.5,2
		c-1.7,0.5-3.7,0.7-5.8,0.7c-2.4,0-4.5-0.3-6.3-0.9c-1.8-0.6-3.4-1.5-4.6-2.5c-1.3-1-2.2-2.2-2.9-3.5c0,0,0,0,0-0.1
		c-0.9-1.8,0.6-3.7,2.6-4c2.7-0.3,3.4,1.3,4.1,2.1c0.6,0.8,1.4,1.7,2.1,2.1c0.7,0.4,1.5,0.8,2.4,1c0.9,0.2,1.8,0.3,2.8,0.3
		c1.3,0,2.4-0.1,3.3-0.4c0.9-0.3,1.7-0.6,2.3-1.1c0.5-0.4,0.8-0.8,1.1-1.2c0.2-0.4,0.3-0.9,0.3-1.5
		C250.3,103.7,250.2,103.2,249.9,102.7z"/>
	<path class="st0" d="M279,122.7c0.3-1.6,1.4-2.6,3.1-2.3c0.8,0.1,1.5,0.1,2.4-0.6c0.6-0.4,1.1-0.9,1.5-1.4c0.4-0.5,0.7-1,1-1.4
		c0.3-0.4,0.5-0.8,0.7-1.3l1.9-3.7c0.1-0.2,0.1-0.4,0-0.6l-11.7-26.1c-1.1-2.4,0.7-5.1,3.3-5.1h0c1.5,0,2.8,0.9,3.4,2.3l7.3,17.9
		l1,3.2c0,0.1,0.2,0.2,0.3,0l1.2-3.1l7-17.9c0.5-1.4,1.9-2.3,3.4-2.3h0.1c2.6,0,4.4,2.7,3.3,5.1l-14.5,32.9
		c-0.4,0.9-0.9,1.8-1.4,2.7c-0.6,1-1.3,1.9-2.2,2.7c-0.9,0.8-1.9,1.5-3.1,2.1c-1.2,0.6-2.6,0.8-4.2,0.8c-0.3,0-0.6,0-0.9,0
		C280.2,126.3,278.6,124.7,279,122.7z"/>
	<path class="st0" d="M332.1,80.2L332.1,80.2c1.8,0,3.3,1.3,3.4,3.1l0.1,1.2c0,0.1,0.2,0.2,0.3,0.1c0.5-0.7,1.4-1.8,3-2.9
		c1-0.7,2-1.2,3.2-1.6c1.2-0.4,2.4-0.5,3.7-0.5c1.7,0,3.2,0.2,4.6,0.7c1.4,0.5,2.6,1.3,3.6,2.3c1,1.1,1.8,2.4,2.3,4
		c0.5,1.6,0.8,3.6,0.8,5.9v16.9c0,2-1.6,3.6-3.6,3.6l0,0c-2,0-3.6-1.6-3.6-3.6V92.8c0-1.4-0.2-2.5-0.5-3.4c-0.3-0.9-0.8-1.7-1.3-2.2
		c-0.6-0.6-1.3-0.9-2.1-1.2c-0.8-0.2-1.8-0.4-2.9-0.4c-0.9,0-1.7,0.1-2.5,0.4s-1.5,0.6-2.1,1c-0.5,0.3-0.9,0.7-1.4,1.2
		c-0.4,0.4-0.7,0.9-1,1.4c-0.1,0.1-0.1,0.2-0.1,0.3v19.7c0,2-1.6,3.6-3.6,3.6l0,0c-2,0-3.6-1.6-3.6-3.6V83.7
		C328.6,81.8,330.2,80.2,332.1,80.2z"/>
	<path class="st0" d="M395.5,107.5c0.8-0.3,1.6-0.7,2.2-1.2c0.8-0.8,1.7-2.1,1.8-2.2c0.7-1.1,2.1-2.1,3.5-2c2.3,0.1,3.7,2.6,2.7,4.7
		c0,0,0,0,0,0c-0.7,1.4-1.7,2.6-3,3.6c-1.3,1.1-2.7,1.9-4.4,2.5c-1.7,0.6-3.4,0.9-5.2,0.9c-2.5,0-4.8-0.4-6.7-1.3
		c-1.9-0.9-3.5-2.1-4.7-3.6c-1.3-1.5-2.2-3.3-2.9-5.3s-1-4.1-1-6.4v-1.1c0-2.3,0.3-4.4,1-6.4c0.6-2,1.6-3.8,2.9-5.3
		c1.3-1.5,2.9-2.7,4.8-3.6c1.9-0.9,4.1-1.3,6.6-1.3c2,0,3.8,0.3,5.5,0.9c1.7,0.6,3.2,1.5,4.4,2.6c1.2,1.1,2.2,2.4,2.8,3.9
		c1.2,2.9-0.5,4.9-2.6,5c-1,0-2.6-0.3-3.6-2.4c-0.3-0.7-1-1.6-1.6-2.2c-0.6-0.6-1.4-1.1-2.2-1.4c-0.9-0.3-1.8-0.5-2.8-0.5
		c-1.5,0-2.8,0.3-3.8,0.9c-1,0.6-1.8,1.4-2.4,2.4c-0.6,1-1.1,2.1-1.3,3.4c-0.3,1.3-0.4,2.6-0.4,3.9v1.1c0,1.3,0.1,2.7,0.4,3.9
		c0.3,1.3,0.7,2.4,1.3,3.4c0.6,1,1.4,1.8,2.4,2.4c1,0.6,2.3,0.9,3.8,0.9C393.8,108,394.7,107.8,395.5,107.5z"/>
	<path class="st0" d="M428.4,80.2h0.5c1.5,0,2.7,1.1,2.9,2.5l3.1,20.6c0,0.2,0.3,0.2,0.3,0l4.3-20.8c0.3-1.4,1.5-2.3,2.9-2.3h0
		c1.4,0,2.6,1,2.9,2.3l4.3,20.9c0,0.2,0.3,0.2,0.3,0l3-20.7c0.2-1.4,1.5-2.5,2.9-2.5h0.5c1.9,0,3.2,1.7,2.9,3.5l-5.1,26.4
		c-0.3,1.8-1.9,3.1-3.7,3.1h0c-1.8,0-3.3-1.2-3.7-3l-4.2-19.1c0-0.2-0.3-0.2-0.3,0l-4.1,19.1c-0.4,1.7-1.9,3-3.7,3l0,0
		c-1.8,0-3.4-1.3-3.7-3.1l-5.1-26.4C425.2,81.9,426.6,80.2,428.4,80.2z"/>
	<path class="st0" d="M478.1,89.8c0.7-2,1.7-3.8,3-5.3c1.3-1.5,2.9-2.7,4.8-3.5c1.9-0.9,4-1.3,6.5-1.3s4.6,0.4,6.5,1.3
		c1.9,0.9,3.5,2,4.8,3.5c1.3,1.5,2.3,3.3,3,5.3c0.7,2,1,4.3,1,6.7V97c0,2.4-0.3,4.6-1,6.7c-0.7,2-1.7,3.8-3,5.3
		c-1.3,1.5-2.9,2.7-4.8,3.5c-1.9,0.9-4,1.3-6.4,1.3c-2.4,0-4.6-0.4-6.5-1.3c-1.9-0.9-3.5-2-4.8-3.5c-1.3-1.5-2.3-3.3-3-5.3
		c-0.7-2-1-4.3-1-6.7v-0.6C477.1,94,477.4,91.8,478.1,89.8z M484.8,101.3c0.3,1.3,0.8,2.5,1.5,3.5c0.7,1,1.5,1.8,2.5,2.4
		c1,0.6,2.2,0.9,3.6,0.9c1.4,0,2.5-0.3,3.6-0.9c1-0.6,1.8-1.4,2.5-2.4c0.7-1,1.1-2.2,1.4-3.5c0.3-1.3,0.5-2.7,0.5-4.2v-0.6
		c0-1.4-0.2-2.8-0.5-4.1c-0.3-1.3-0.8-2.5-1.4-3.5c-0.7-1-1.5-1.8-2.5-2.4c-1-0.6-2.2-0.9-3.6-0.9c-1.4,0-2.6,0.3-3.6,0.9
		c-1,0.6-1.8,1.4-2.5,2.4c-0.7,1-1.2,2.2-1.5,3.5c-0.3,1.3-0.5,2.7-0.5,4.1V97C484.3,98.5,484.5,99.9,484.8,101.3z"/>
	<path class="st0" d="M547.5,83.4v23.4c0,0.2,0.1,0.3,0.3,0.3h6.4c1.7,0,3,1.3,3,3v0c0,1.7-1.3,3-3,3H533c-1.7,0-3-1.3-3-3v0
		c0-1.7,1.3-3,3-3h6.8c0.2,0,0.3-0.1,0.3-0.3V86.6c0-0.2-0.1-0.3-0.3-0.3H533c-1.7,0-3-1.3-3-3v0c0-1.7,1.3-3,3-3h11.3
		C546.1,80.2,547.5,81.6,547.5,83.4z M539.8,70.1c0.2-0.5,0.5-0.9,0.9-1.3c0.4-0.3,0.8-0.6,1.3-0.8c0.5-0.2,1.1-0.3,1.8-0.3
		c1.1,0,2,0.3,2.7,0.8c0.7,0.6,1.1,1.3,1.2,2.1c0.1,0.9,0,1.7-0.5,2.3c-0.8,1.3-1.8,1.8-3,2.1c-0.8,0.2-1.8,0.1-2.5-0.1
		c-0.7-0.2-1.3-0.6-1.7-1.2c-0.4-0.6-0.6-1.3-0.6-2C539.5,71.1,539.6,70.6,539.8,70.1z"/>
	<path class="st0" d="M598.5,110.2c0-0.1-0.2-0.2-0.3-0.1c-0.5,0.5-1,0.9-1.5,1.3c-0.6,0.5-1.4,0.9-2.1,1.2
		c-0.8,0.4-1.6,0.6-2.6,0.9c-0.9,0.2-1.9,0.3-3,0.3c-1.7,0-3.3-0.2-4.7-0.7c-1.4-0.5-2.6-1.2-3.6-2.1c-1-0.9-1.8-1.9-2.4-3.1
		c-0.6-1.2-0.8-2.5-0.8-3.9c0-1.8,0.4-3.4,1.1-4.8c0.7-1.4,1.8-2.5,3.2-3.5c1.3-0.9,2.9-1.5,4.7-1.9c1.9-0.4,4-0.7,6.4-0.7h5
		c0.2,0,0.3-0.1,0.3-0.3v-1.9c0-0.9-0.1-1.6-0.4-2.3c-0.3-0.7-0.7-1.3-1.3-1.8c-0.6-0.5-1.3-0.9-2.1-1.2c-0.8-0.3-1.8-0.4-2.9-0.4
		c-1,0-1.9,0.1-2.6,0.4c-0.7,0.2-1.4,0.6-1.8,1c-0.5,0.4-0.8,1-1.1,1.6c-0.8,2-3.4,1.9-4.6,1.8c-1.9-0.2-3-2.2-2.2-3.9l0,0
		c0.6-1.2,1.5-2.3,2.7-3.2c1.1-1,2.5-1.7,4.2-2.3c1.7-0.6,3.6-0.8,5.7-0.8c1.9,0,3.7,0.2,5.4,0.7c1.7,0.5,3.1,1.2,4.3,2.1
		c1.2,0.9,2.2,2.1,2.9,3.6c0.7,1.4,1,3.1,1,5v14.7c0,1.5,0,2.1,0.2,3.3c0,0.3,0.1,0.6,0.2,0.9c0.6,2.9-0.6,4.1-4.1,4.1
		c-1.5,0-2.8-1.2-3.1-2.6C598.6,110.8,598.5,110.4,598.5,110.2z M593.1,107.6c0.8-0.2,1.6-0.6,2.2-0.9c0.7-0.4,1.2-0.8,1.7-1.3
		c0.5-0.5,0.8-0.9,1.1-1.4c0,0,0-0.1,0-0.2V98c0-0.2-0.1-0.3-0.3-0.3h-4.4c-1.6,0-3,0.1-4.1,0.4s-2.1,0.7-2.8,1.3
		c-0.6,0.5-1.1,1-1.4,1.7c-0.3,0.7-0.4,1.4-0.4,2.2c0,0.7,0.1,1.3,0.4,1.9c0.2,0.6,0.6,1.1,1.1,1.5c0.5,0.4,1,0.7,1.7,1
		c0.7,0.2,1.5,0.3,2.4,0.3C591.4,108,592.3,107.8,593.1,107.6z"/>
</g>
</svg>
