<svg id="Layer_1" data-name="Layer 1" xmlns="http://www.w3.org/2000/svg" viewBox="0 0 32 32"><defs><style>.cls-1{fill:#fff;}.cls-2{fill:#1e1e1c;}</style></defs><title>favicon syncwoia-01</title><circle class="cls-1" cx="16" cy="16" r="16"/><path class="cls-2" d="M9.44,13.4a29.67,29.67,0,0,1,2.47,4,23.72,23.72,0,0,1,1.76,4.35,16,16,0,0,1,.79,4.61c0,.41-.3.83-.7.85s-.77-.36-.74-1A16.71,16.71,0,0,0,12.73,22a17.33,17.33,0,0,0-.65-2.15,21.05,21.05,0,0,0-.92-2.06A21.23,21.23,0,0,0,8.68,14a20.53,20.53,0,0,0-3.06-3A.84.84,0,0,1,5.3,9.87.69.69,0,0,1,6.37,9.8,30.92,30.92,0,0,1,9.44,13.4Z"/><path class="cls-2" d="M8.37,16.09A21.77,21.77,0,0,1,10,18.78a17.08,17.08,0,0,1,1.2,2.92,9.8,9.8,0,0,1,.6,3.19.81.81,0,0,1-.67.78c-.4,0-.72-.36-.7-.86a11.32,11.32,0,0,0-.17-2.86,10.76,10.76,0,0,0-.41-1.42,13.55,13.55,0,0,0-.6-1.36,13.14,13.14,0,0,0-1.66-2.47,15.35,15.35,0,0,0-2-1.92c-.36-.3-.56-.76-.33-1.09a.73.73,0,0,1,1.09-.08A14.62,14.62,0,0,1,8.37,16.09Z"/><path class="cls-2" d="M7.3,18.79a15.87,15.87,0,0,1,.82,1.4,11.3,11.3,0,0,1,.65,1.5,6.62,6.62,0,0,1,.41,1.72.75.75,0,0,1-.58.85.64.64,0,0,1-.77-.53,2.67,2.67,0,0,1,0-.7,3.11,3.11,0,0,0,0-1.1,4.53,4.53,0,0,0-.46-1.36,5.24,5.24,0,0,0-.84-1.18,8,8,0,0,0-1.08-.9c-.41-.31-.58-.61-.39-1a.67.67,0,0,1,1-.25A6.48,6.48,0,0,1,7.3,18.79Z"/><path class="cls-2" d="M22.56,13.51a29.67,29.67,0,0,0-2.47,4,23.72,23.72,0,0,0-1.76,4.35,16,16,0,0,0-.79,4.61c0,.41.3.83.7.85s.77-.36.74-1a16.71,16.71,0,0,1,.29-4.23,17.33,17.33,0,0,1,.65-2.15,20.52,20.52,0,0,1,3.41-5.82,20.53,20.53,0,0,1,3.06-3A.84.84,0,0,0,26.7,10a.69.69,0,0,0-1.07-.06A30.92,30.92,0,0,0,22.56,13.51Z"/><path class="cls-2" d="M23.63,16.2A21.77,21.77,0,0,0,22,18.88a17.08,17.08,0,0,0-1.2,2.92,9.8,9.8,0,0,0-.6,3.19.81.81,0,0,0,.67.78c.4,0,.72-.36.7-.86a11.32,11.32,0,0,1,.17-2.86,10.76,10.76,0,0,1,.41-1.42,13.55,13.55,0,0,1,.6-1.36,13.14,13.14,0,0,1,1.66-2.47,15.35,15.35,0,0,1,2-1.92c.36-.3.56-.76.33-1.09a.73.73,0,0,0-1.09-.08A14.62,14.62,0,0,0,23.63,16.2Z"/><path class="cls-2" d="M24.7,18.89a15.87,15.87,0,0,0-.82,1.4,11.3,11.3,0,0,0-.65,1.5,6.62,6.62,0,0,0-.41,1.72.75.75,0,0,0,.58.85.64.64,0,0,0,.77-.53,2.67,2.67,0,0,0,0-.7,3.11,3.11,0,0,1,0-1.1,4.53,4.53,0,0,1,.46-1.36,5.24,5.24,0,0,1,.84-1.18,8,8,0,0,1,1.08-.9c.41-.31.58-.61.39-1a.67.67,0,0,0-1-.25A6.48,6.48,0,0,0,24.7,18.89Z"/><path class="cls-2" d="M23.71,7.73a.72.72,0,0,0-1,.17c-.41.49-.86,1.22-1.31,1.79a12.05,12.05,0,0,1-1.48,1.57,7.7,7.7,0,0,1-1.76,1.17,5,5,0,0,1-2,.49h0a5,5,0,0,1-2-.49,7.7,7.7,0,0,1-1.76-1.17,12.05,12.05,0,0,1-1.48-1.57c-.45-.57-.9-1.3-1.31-1.79a.72.72,0,0,0-1-.17c-.3.26-.2.72.05,1.09A13.57,13.57,0,0,0,11.72,12a9.59,9.59,0,0,0,2,1.22,6,6,0,0,0,2.34.53h0a6,6,0,0,0,2.34-.53,9.59,9.59,0,0,0,2-1.22,13.57,13.57,0,0,0,3.17-3.18C23.91,8.45,24,8,23.71,7.73Z"/><path class="cls-2" d="M21.36,6.35a.64.64,0,0,0-1,.15c-.27.38-.6.87-.89,1.25a7.48,7.48,0,0,1-.95,1,4.86,4.86,0,0,1-1.13.77,3.17,3.17,0,0,1-1.27.32h0a3.17,3.17,0,0,1-1.27-.32A4.86,4.86,0,0,1,13.7,8.8a7.48,7.48,0,0,1-.95-1c-.29-.38-.62-.87-.89-1.25a.64.64,0,0,0-1-.15c-.31.29-.12.79.06,1a10.81,10.81,0,0,0,2.17,2.15,6.75,6.75,0,0,0,1.39.82,4.15,4.15,0,0,0,1.62.36h0a4.15,4.15,0,0,0,1.62-.36,6.75,6.75,0,0,0,1.39-.82A10.81,10.81,0,0,0,21.3,7.4C21.48,7.14,21.67,6.64,21.36,6.35Z"/><path class="cls-2" d="M19.09,4.93c-.29-.35-.87-.31-1.2.3a6.18,6.18,0,0,1-.74,1.11,1.67,1.67,0,0,1-1,.52,1.67,1.67,0,0,1-1-.52,6.18,6.18,0,0,1-.74-1.11c-.34-.61-.91-.64-1.2-.3A1,1,0,0,0,13.23,6a4.63,4.63,0,0,0,1.22,1.09,3,3,0,0,0,1.66.61h0a3,3,0,0,0,1.66-.61A4.63,4.63,0,0,0,19,6,1,1,0,0,0,19.09,4.93Z"/></svg>